<?xml version="1.0" encoding="UTF-8" standalone="no"?>
<!-- Created with Inkscape (http://www.inkscape.org/) -->

<svg
   width="87.026398mm"
   height="8.8690538mm"
   viewBox="0 0 87.026398 8.8690538"
   version="1.1"
   id="svg1982"
   inkscape:version="1.1.2 (0a00cf5339, 2022-02-04)"
   sodipodi:docname="Worldline SA logo.svg"
   xmlns:inkscape="http://www.inkscape.org/namespaces/inkscape"
   xmlns:sodipodi="http://sodipodi.sourceforge.net/DTD/sodipodi-0.dtd"
   xmlns="http://www.w3.org/2000/svg"
   xmlns:svg="http://www.w3.org/2000/svg">
  <sodipodi:namedview
     id="namedview1984"
     pagecolor="#ffffff"
     bordercolor="#666666"
     borderopacity="1.0"
     inkscape:pageshadow="2"
     inkscape:pageopacity="0.0"
     inkscape:pagecheckerboard="0"
     inkscape:document-units="mm"
     showgrid="false"
     fit-margin-top="0"
     fit-margin-left="0"
     fit-margin-right="0"
     fit-margin-bottom="0"
     inkscape:zoom="2.2184228"
     inkscape:cx="156.19205"
     inkscape:cy="115.3973"
     inkscape:window-width="1920"
     inkscape:window-height="1011"
     inkscape:window-x="0"
     inkscape:window-y="0"
     inkscape:window-maximized="1"
     inkscape:current-layer="layer1" />
  <defs
     id="defs1979" />
  <g
     inkscape:label="Layer 1"
     inkscape:groupmode="layer"
     id="layer1"
     transform="translate(-5.09376,-41.87604)">
    <path
       d="m 77.59806,43.952577 c -0.313619,0.275167 -0.607483,0.572206 -0.878769,0.889 1.315508,1.321506 2.264833,3.338336 2.584097,5.673725 h 1.265414 c -0.255059,-2.057753 -0.96132,-3.958167 -2.051403,-5.4737 -0.287514,-0.399697 -0.595136,-0.762706 -0.919339,-1.089025"
       style="fill:#007B7C;fill-opacity:1;fill-rule:nonzero;stroke:none;stroke-width:0.352778"
       id="path50" />
    <path
       d="m 76.056068,45.723169 c -0.243064,0.369358 -0.458964,0.758119 -0.644878,1.163814 0.753181,0.939094 1.307395,2.198158 1.559984,3.628319 h 1.27 c -0.239889,-1.5367 -0.793398,-2.952044 -1.61925,-4.097866 -0.179564,-0.248709 -0.368653,-0.480131 -0.565856,-0.694267"
       style="fill:#007B7C;fill-opacity:1;fill-rule:nonzero;stroke:none;stroke-width:0.352778"
       id="path54" />
    <path
       d="m 74.623437,50.515302 h 1.273881 c -0.183445,-0.871008 -0.503062,-1.681692 -0.944387,-2.383367 -0.214488,0.757414 -0.329494,1.557161 -0.329494,2.383367"
       style="fill:#007B7C;fill-opacity:1;fill-rule:nonzero;stroke:none;stroke-width:0.352778"
       id="path58" />
    <path
       d="m 88.448445,43.434346 c -0.1651,-0.119239 -0.334433,-0.232481 -0.508,-0.340078 -0.07902,0.08255 -0.157339,0.165806 -0.234244,0.251178 -1.014237,1.126067 -2.162881,2.849739 -2.771423,5.274733 -0.186266,-0.978253 -0.44838,-1.923697 -0.781755,-2.822222 0.660047,-1.477786 1.480608,-2.62008 2.236258,-3.464278 -0.203553,-0.07549 -0.410633,-0.143933 -0.621241,-0.204964 -0.648759,0.754239 -1.331031,1.716264 -1.92017,2.905478 -0.424744,-0.987072 -0.9398,-1.908528 -1.539522,-2.744611 -0.09772,-0.136525 -0.197556,-0.268817 -0.29845,-0.398992 -0.463903,0.07161 -0.915458,0.179917 -1.352197,0.321734 1.047044,1.211791 1.901119,2.747786 2.486377,4.498975 -0.215194,0.618066 -0.401813,1.280936 -0.547863,1.993547 -0.412045,-1.8796 -1.153231,-3.604683 -2.183342,-5.039431 -0.263525,-0.366888 -0.541161,-0.708377 -0.831497,-1.023408 -0.389114,0.18662 -0.762353,0.401108 -1.116895,0.640997 1.654881,1.675695 2.827514,4.257322 3.159125,7.232297 h 1.31057 c 0.09772,-1.008238 0.277636,-1.932163 0.516114,-2.774597 0.231069,0.883356 0.396169,1.812572 0.486833,2.774597 h 1.266119 c 0.374298,-3.254022 1.759656,-5.444772 2.950281,-6.766983 0.09772,-0.108655 0.196144,-0.212725 0.294922,-0.313972"
       style="fill:#007B7C;fill-opacity:1;fill-rule:nonzero;stroke:none;stroke-width:0.352778"
       id="path62" />
    <path
       d="m 90.092391,44.977396 c -0.128764,-0.156633 -0.263172,-0.308681 -0.402519,-0.456142 -1.344437,1.377598 -2.468739,3.376084 -2.819753,5.993695 h 0.608189 c 0.359127,-2.541059 1.462616,-4.267553 2.416175,-5.325886 0.06562,-0.07267 0.131586,-0.142875 0.197908,-0.211667"
       style="fill:#007B7C;fill-opacity:1;fill-rule:nonzero;stroke:none;stroke-width:0.352778"
       id="path66" />
    <path
       d="m 89.154002,50.515302 h 0.611011 c 0.287867,-1.575153 0.93592,-2.729442 1.567039,-3.525308 -0.08961,-0.2032 -0.186972,-0.402167 -0.291394,-0.596547 -0.875948,1.023761 -1.592087,2.39783 -1.886656,4.121855"
       style="fill:#007B7C;fill-opacity:1;fill-rule:nonzero;stroke:none;stroke-width:0.352778"
       id="path70" />
    <path
       d="m 91.997391,49.104544 c -0.224014,0.42545 -0.408517,0.895703 -0.538339,1.410758 h 0.661106 c 0,-0.480483 -0.04269,-0.951441 -0.122767,-1.410758"
       style="fill:#007B7C;fill-opacity:1;fill-rule:nonzero;stroke:none;stroke-width:0.352778"
       id="path74" />
    <path
       d="m 36.907615,42.128717 h -1.883833 v 8.386586 h 5.1689 v -1.654528 h -3.285067"
       style="fill:#007B7C;fill-opacity:1;fill-rule:nonzero;stroke:none;stroke-width:0.352778"
       id="path78" />
    <path
       d="m 50.610208,42.128717 h -0.681214 v 8.386586 h 4.502503 v -0.61207 h -3.821289"
       style="fill:#007B7C;fill-opacity:1;fill-rule:nonzero;stroke:none;stroke-width:0.352778"
       id="path82" />
    <path
       d="m 55.21678,50.51495 h 0.681214 V 42.128365 H 55.21678 Z"
       style="fill:#007B7C;fill-opacity:1;fill-rule:nonzero;stroke:none;stroke-width:0.352778"
       id="path84" />
    <path
       d="m 66.913833,49.903234 v -3.385255 h 3.706283 v -0.599017 h -3.706283 v -3.178175 h 3.983214 v -0.612069 h -4.664075 v 8.386233 h 4.802716 v -0.611717"
       style="fill:#007B7C;fill-opacity:1;fill-rule:nonzero;stroke:none;stroke-width:0.352778"
       id="path88" />
    <path
       d="M 63.957202,49.903234 H 63.81856 l -4.857044,-7.774516 h -1.224844 v 8.386233 h 0.678391 v -7.774517 h 0.165453 l 4.857044,7.774517 h 1.198739 v -8.386233 h -0.679097"
       style="fill:#007B7C;fill-opacity:1;fill-rule:nonzero;stroke:none;stroke-width:0.352778"
       id="path92" />
    <path
       d="m 13.602407,48.860776 h -0.140406 l -1.381477,-6.5024 h -1.960386 l -1.2343698,6.5024 H 8.7037349 L 7.0220433,42.128718 H 5.09376 l 2.0679833,8.386586 H 10.05064 l 1.038578,-5.10787 1.118658,5.10787 h 2.946753 l 1.83762,-8.386586 h -1.93675"
       style="fill:#007B7C;fill-opacity:1;fill-rule:nonzero;stroke:none;stroke-width:0.352778"
       id="path96" />
    <path
       d="M 47.498356,43.300644 C 46.60477,42.426461 45.431784,42.056397 44.086642,42.059925 h -3.112558 v 8.501238 h 3.112558 c 0.758472,0 1.420636,-0.116416 1.987197,-0.350308 1.068917,-0.431094 1.880659,-1.245658 2.280003,-2.280356 0.223308,-0.56903 0.299156,-1.158875 0.28187,-1.757891 -0.0014,-1.074561 -0.366889,-2.110317 -1.137356,-2.871964 m -1.002594,4.135967 c -0.238478,0.621594 -0.678745,1.062566 -1.303867,1.297869 -0.313972,0.118886 -0.670278,0.178153 -1.068211,0.178153 h -1.265767 v -5.204531 h 1.265767 c 0.397933,0 0.754239,0.05362 1.068211,0.160867 0.62618,0.212019 1.065742,0.651581 1.303867,1.264003 0.234597,0.650522 0.240241,1.643239 0,2.303639"
       style="fill:#007B7C;fill-opacity:1;fill-rule:nonzero;stroke:none;stroke-width:0.352778"
       id="path100" />
    <path
       d="m 23.44914,42.249367 c -1.072092,-0.498122 -2.822222,-0.497417 -3.888317,0 -1.062919,0.467783 -1.859844,1.3208 -2.251427,2.378075 -0.222603,0.590903 -0.29845,1.18745 -0.281164,1.798108 0.01482,1.605139 0.979311,3.223331 2.498019,3.917245 1.077384,0.536575 2.885722,0.536222 3.963106,0 1.518355,-0.693561 2.483555,-2.312459 2.498019,-3.917245 0.04868,-1.147586 -0.341489,-2.321983 -1.137003,-3.182408 -0.375355,-0.413808 -0.842433,-0.744714 -1.401233,-0.993775 m -1.936044,6.780036 c -1.596673,0 -2.513895,-1.256242 -2.513895,-2.714272 0,-1.512359 0.860425,-2.714625 2.513895,-2.714625 1.401586,0 2.513894,0.966611 2.513894,2.714625 0,1.466497 -0.935214,2.714272 -2.513894,2.714272"
       style="fill:#007B7C;fill-opacity:1;fill-rule:nonzero;stroke:none;stroke-width:0.352778"
       id="path104" />
    <path
       d="m 33.241548,46.603351 c 0.312208,-0.437092 0.442736,-1.084792 0.4191,-1.728964 0,-0.620183 -0.137936,-1.139119 -0.413456,-1.556455 -0.652638,-0.963436 -1.787525,-1.248834 -2.998258,-1.258359 h -3.296708 v 8.455731 h 1.883833 v -2.596445 c 0.03704,-3.52e-4 1.38677,0.0011 1.426986,-3.52e-4 l 1.778,2.596797 h 2.182284 l -2.141714,-3.003197 c 0.497416,-0.202848 0.884414,-0.505531 1.159933,-0.908756 m -1.714853,-0.895703 c -0.24765,0.433211 -0.668514,0.639586 -1.183216,0.63747 h -1.50742 v -2.636661 h 1.50742 c 0.275519,0 0.512938,0.0039 0.712258,0.115005 0.198967,0.111125 0.355953,0.268111 0.470958,0.470958 0.225778,0.386292 0.233539,1.019175 0,1.413228"
       style="fill:#007B7C;fill-opacity:1;fill-rule:nonzero;stroke:none;stroke-width:0.352778"
       id="path108" />
  </g>
</svg>
