<?xml version="1.0" standalone="no"?>
<!DOCTYPE svg PUBLIC "-//W3C//DTD SVG 1.1//EN" "http://www.w3.org/Graphics/SVG/1.1/DTD/svg11.dtd" >
<svg xmlns="http://www.w3.org/2000/svg">
<metadata>Generated by IcoMoon</metadata>
<defs>
<font id="op-icons" horiz-adv-x="1024">
<font-face units-per-em="1024" ascent="960" descent="-64" />
<missing-glyph horiz-adv-x="1024" />
<glyph unicode="&#x20;" horiz-adv-x="512" d="" />
<glyph unicode="&#xe900;" glyph-name="Refresh" d="M142.22 490.662c0-23.564 19.102-42.668 42.666-42.668s42.666 19.103 42.666 42.668c0 94.257 76.41 170.667 170.667 170.667h373.533l-63.913-71.013c-15.764-17.515-14.346-44.493 3.169-60.256s44.493-14.344 60.257 3.171l128 142.222c15.181 16.867 14.505 42.666-1.546 58.712l-128 128c-16.66 16.663-43.674 16.663-60.339 0-16.66-16.662-16.66-43.677 0-60.34l55.163-55.163h-366.324c-141.385 0-256-114.615-256-256zM881.777 405.33c0 23.562-19.103 42.665-42.67 42.665-23.562 0-42.665-19.103-42.665-42.665 0-94.259-76.411-170.665-170.665-170.665h-373.533l63.911 71.009c15.764 17.516 14.344 44.493-3.171 60.257s-44.493 14.346-60.256-3.169l-128-142.223c-15.181-16.87-14.502-42.665 1.544-58.711l128-128c16.663-16.666 43.677-16.666 60.34 0 16.663 16.66 16.663 43.674 0 60.339l-55.163 55.163h366.328c141.384 0 256 114.616 256 256z" />
<glyph unicode="&#xe901;" glyph-name="NoteAdd" d="M142.225 661.33c0 86.402 70.043 156.445 156.445 156.445h426.665c86.405 0 156.447-70.043 156.447-156.445v-241.777c0-23.562-19.103-42.665-42.67-42.665-23.562 0-42.665 19.103-42.665 42.665v241.777c0 39.273-31.836 71.111-71.112 71.111h-426.665c-39.273 0-71.111-31.838-71.111-71.111v-426.665c0-39.276 31.838-71.112 71.111-71.112h241.777c23.562 0 42.665-19.103 42.665-42.665 0-23.567-19.103-42.67-42.665-42.67h-241.777c-86.402 0-156.445 70.042-156.445 156.447v426.665zM796.447 319.995c23.562 0 42.665-19.098 42.665-42.665v-71.112h71.112c23.567 0 42.67-19.103 42.67-42.665s-19.103-42.665-42.67-42.665h-71.112v-71.112c0-23.567-19.103-42.67-42.665-42.67s-42.665 19.103-42.665 42.67v71.112h-71.112c-23.567 0-42.665 19.103-42.665 42.665s19.098 42.665 42.665 42.665h71.112v71.112c0 23.567 19.103 42.665 42.665 42.665zM315.736 604.443c0 21.993 17.829 39.822 39.822 39.822h312.888c21.996 0 39.823-17.829 39.823-39.822s-17.828-39.822-39.823-39.822h-312.888c-21.993 0-39.822 17.829-39.822 39.822zM355.558 502.043c-21.993 0-39.822-17.829-39.822-39.822s17.829-39.82 39.822-39.82h128c21.993 0 39.823 17.828 39.823 39.82s-17.83 39.822-39.823 39.822h-128z" />
<glyph unicode="&#xe902;" glyph-name="ExternalSmall" d="M614.214 769.267c-24.193 0-43.808-19.614-43.808-43.809s19.615-43.809 43.808-43.809h69.473l-158.86-158.863c-17.11-17.109-17.11-44.847 0-61.956 17.106-17.109 44.844-17.109 61.955 0l158.86 158.863v-69.472c0-24.195 19.615-43.81 43.813-43.81 24.193 0 43.808 19.615 43.808 43.81v175.237c0 24.195-19.615 43.809-43.808 43.809h-175.241zM804.054 374.983c0 24.193-19.61 43.808-43.808 43.808-24.193 0-43.808-19.615-43.808-43.808v-58.412c0-40.328-32.689-73.017-73.017-73.017h-262.858c-40.325 0-73.016 32.689-73.016 73.017v262.855c0 40.326 32.691 73.016 73.016 73.016h58.413c24.195 0 43.81 19.615 43.81 43.81s-19.615 43.809-43.81 43.809h-58.413c-88.716 0-160.634-71.919-160.634-160.635v-262.855c0-88.719 71.919-160.637 160.634-160.637h262.858c88.714 0 160.632 71.918 160.632 160.637v58.412z" />
<glyph unicode="&#xe903;" glyph-name="Settings" d="M664.943 447.995c0 84.468-68.477 152.943-152.945 152.943s-152.942-68.475-152.942-152.943c0-84.466 68.475-152.943 152.942-152.943s152.945 68.477 152.945 152.943zM573.176 447.995c0-33.784-27.392-61.176-61.178-61.176-33.787 0-61.177 27.392-61.177 61.176 0 33.788 27.39 61.178 61.177 61.178s61.178-27.39 61.178-61.178zM473.863 906.818c-56.626 0-102.53-45.904-102.53-102.53v-42.070c0-3.456-2.583-10.423-12.063-15.373-9.413-4.917-18.555-10.274-27.401-16.041-9.035-5.89-16.453-4.66-19.474-2.914l-36.695 21.185c-49.039 28.313-111.749 11.512-140.062-37.531l-38.13-66.042c-28.314-49.039-11.512-111.749 37.531-140.062l39.611-22.87c2.976-1.718 7.641-7.328 7.304-17.798-0.115-3.581-0.173-7.173-0.173-10.776 0-5.899 0.156-11.77 0.462-17.6 0.567-10.751-4.208-16.561-7.235-18.308l-39.968-23.079c-49.039-28.311-65.845-91.019-37.531-140.059l38.13-66.042c28.313-49.040 91.022-65.846 140.062-37.53l42.852 24.736c2.968 1.712 10.168 2.952 19.097-2.606 7.033-4.384 14.248-8.506 21.625-12.362 9.48-4.956 12.063-11.921 12.063-15.371v-49.617c0-56.627 45.904-102.529 102.53-102.529h76.26c56.627 0 102.529 45.901 102.529 102.529v49.612c0 3.45 2.586 10.424 12.062 15.371 7.382 3.861 14.597 7.984 21.632 12.362 8.924 5.559 16.128 4.323 19.096 2.606l42.848-24.731c49.035-28.316 111.748-11.514 140.059 37.53l38.128 66.042c28.316 49.040 11.514 111.748-37.53 140.059l-39.961 23.074c-3.023 1.747-7.798 7.553-7.231 18.308 0.302 5.835 0.462 11.705 0.462 17.605 0 3.605-0.060 7.198-0.176 10.78-0.336 10.467 4.328 16.081 7.306 17.799l39.599 22.866c49.040 28.313 65.846 91.022 37.535 140.062l-38.133 66.042c-28.311 49.039-91.019 65.845-140.059 37.531l-36.692-21.182c-3.023-1.746-10.44-2.976-19.473 2.914-8.848 5.768-17.992 11.125-27.407 16.042-9.476 4.953-12.062 11.92-12.062 15.373v42.067c0 56.626-45.901 102.53-102.529 102.53h-76.26zM463.094 804.284c0 5.946 4.819 10.769 10.769 10.769h76.26c5.946 0 10.771-4.819 10.771-10.769v-42.067c0-44.565 28.256-79.428 61.337-96.707 6.789-3.547 13.392-7.415 19.784-11.581 31.625-20.615 76.456-28.035 115.469-5.513l36.692 21.182c5.147 2.973 11.735 1.208 14.708-3.941l38.133-66.042c2.973-5.149 1.205-11.737-3.942-14.71l-39.604-22.866c-38.123-22.014-54.327-63.249-53.137-100.218 0.081-2.601 0.126-5.208 0.126-7.83 0-4.292-0.116-8.556-0.336-12.784-1.983-37.656 14.030-80.112 52.987-102.603l39.961-23.069c5.147-2.973 6.915-9.556 3.942-14.713l-38.133-66.042c-2.973-5.147-9.556-6.915-14.708-3.942l-42.848 24.736c-38.193 22.050-82.066 15.39-113.485-4.178-5.077-3.164-10.284-6.141-15.607-8.918-33.081-17.284-61.337-52.148-61.337-96.709v-49.612c0-5.946-4.825-10.766-10.771-10.766h-76.26c-5.946 0-10.769 4.816-10.769 10.766v49.617c0 44.565-28.256 79.424-61.337 96.704-5.322 2.782-10.526 5.76-15.607 8.918-31.418 19.568-75.291 26.237-113.485 4.183l-42.852-24.745c-5.149-2.973-11.737-1.205-14.71 3.942l-38.13 66.042c-2.973 5.152-1.208 11.74 3.941 14.713l39.969 23.074c38.958 22.491 54.971 64.948 52.987 102.603-0.223 4.228-0.336 8.489-0.336 12.779 0 2.621 0.043 5.231 0.125 7.827 1.188 36.969-15.013 78.203-53.138 100.216l-39.611 22.871c-5.149 2.973-6.914 9.557-3.941 14.71l38.13 66.042c2.973 5.149 9.557 6.914 14.711 3.941l36.694-21.185c39.016-22.526 83.846-15.106 115.47 5.514 6.391 4.167 12.993 8.034 19.783 11.581 33.081 17.284 61.337 52.145 61.337 96.706v42.070z" />
<glyph unicode="&#xe904;" glyph-name="ArrowDown" d="M102.385 755.197c-28.272-0.005-53.876-11.471-72.398-30.001v0c-18.527-18.527-29.986-44.131-29.986-72.398s11.456-53.873 29.986-72.398l409.615-409.615c18.527-18.527 44.131-29.981 72.398-29.981s53.869 11.456 72.398 29.984l409.615 409.615c18.527 18.527 29.986 44.131 29.986 72.398s-11.456 53.873-29.986 72.398v0c-18.527 18.527-44.131 29.986-72.398 29.986s-53.873-11.456-72.398-29.986l-337.212-337.212-337.212 337.212c-18.527 18.53-44.131 30.001-72.394 30.001h-0.002z" />
<glyph unicode="&#xe905;" glyph-name="Icon" d="M0 743.385c0 119.633 96.982 216.615 216.615 216.615h590.768c119.634 0 216.617-96.982 216.617-216.615v-354.459c0-119.634-96.983-216.617-216.617-216.617h-98.458v-118.154h59.075c32.63 0 59.075-26.45 59.075-59.080 0-32.625-26.445-59.075-59.075-59.075h-512c-32.627 0-59.077 26.45-59.077 59.075 0 32.63 26.45 59.080 59.077 59.080h59.077v118.154h-98.462c-119.633 0-216.615 96.983-216.615 216.617v354.459zM433.231 172.308v-118.154h157.54v118.154h-157.54zM216.615 841.846c-54.379 0-98.462-44.083-98.462-98.462v-256h787.692v256c0 54.379-44.083 98.462-98.463 98.462h-590.768zM903.875 369.229h-783.751c9.123-44.938 48.857-78.766 96.492-78.766h590.768c47.636 0 87.373 33.828 96.492 78.766z" />
<glyph unicode="&#xe906;" glyph-name="Download" horiz-adv-x="796" d="M271.812 289.974c-34.91 0-63.21-28.297-63.21-63.209 0-34.907 28.3-63.209 63.21-63.209h252.839c34.91 0 63.21 28.302 63.21 63.209 0 34.913-28.301 63.209-63.21 63.209h-252.839zM192.799 922.075c-96.002 0-173.827-77.825-173.827-173.827v-600.496c0-96 77.825-173.824 173.827-173.824h410.866c96 0 173.824 77.824 173.824 173.824v379.261c0 12.573-4.995 24.632-13.881 33.522l-347.657 347.654c-8.891 8.891-20.949 13.885-33.522 13.885h-189.629zM113.787 748.248c0 43.637 35.375 79.012 79.012 79.012h142.222v-237.037c0-61.092 49.525-110.617 110.618-110.617h237.039v-331.854c0-43.634-35.379-79.013-79.013-79.013h-410.866c-43.637 0-79.012 35.379-79.012 79.013v600.496zM615.634 574.42h-169.995c-8.728 0-15.803 7.075-15.803 15.803v169.993l185.798-185.796z" />
<glyph unicode="&#xe907;" glyph-name="arrow-left-ios" d="M716.804-63.995c28.28 0.010 53.869 11.463 72.395 30.001v0c18.524 18.533 29.989 44.125 29.989 72.395s-11.46 53.869-29.989 72.395l-337.213 337.213 337.213 337.213c18.524 18.533 29.989 44.125 29.989 72.395s-11.46 53.869-29.989 72.395v0c-18.533 18.524-44.125 29.989-72.395 29.989s-53.869-11.46-72.395-29.989l-409.611-409.611c-18.519-18.536-29.986-44.125-29.986-72.395s11.46-53.869 29.989-72.395l409.611-409.611c18.528-18.538 44.125-29.991 72.395-30.001h0.002z" />
<glyph unicode="&#xe908;" glyph-name="arrow-right-ios" d="M307.196 959.995c-28.28-0.010-53.869-11.463-72.395-30.001v0c-18.524-18.533-29.989-44.125-29.989-72.395s11.46-53.869 29.989-72.395l337.213-337.213-337.213-337.213c-18.524-18.533-29.989-44.125-29.989-72.395s11.46-53.869 29.989-72.395v0c18.533-18.524 44.125-29.989 72.395-29.989s53.869 11.46 72.395 29.989l409.611 409.611c18.519 18.536 29.986 44.125 29.986 72.395s-11.46 53.869-29.989 72.395l-409.611 409.611c-18.528 18.538-44.125 29.991-72.395 30.001h-0.002z" />
<glyph unicode="&#xe909;" glyph-name="Filter" d="M64 704c0 12.73 5.057 24.94 14.059 33.941s21.211 14.059 33.941 14.059h800c12.73 0 24.941-5.057 33.939-14.059 9.005-9.002 14.061-21.211 14.061-33.941s-5.056-24.94-14.061-33.941c-8.998-9.002-21.21-14.059-33.939-14.059h-800c-12.73 0-24.94 5.057-33.941 14.059s-14.059 21.211-14.059 33.941zM304 192c0 12.73 5.057 24.941 14.059 33.939 9.002 9.005 21.211 14.061 33.941 14.061h320c12.73 0 24.941-5.056 33.939-14.061 9.005-8.998 14.061-21.21 14.061-33.939s-5.056-24.941-14.061-33.939c-8.998-9.005-21.21-14.061-33.939-14.061h-320c-12.73 0-24.94 5.056-33.941 14.061-9.002 8.998-14.059 21.21-14.059 33.939zM224 496c-12.73 0-24.94-5.057-33.941-14.059s-14.059-21.211-14.059-33.941c0-12.73 5.057-24.94 14.059-33.941s21.211-14.059 33.941-14.059h576c12.73 0 24.941 5.057 33.939 14.059 9.005 9.002 14.061 21.211 14.061 33.941s-5.056 24.94-14.061 33.941c-8.998 9.002-21.21 14.059-33.939 14.059h-576z" />
<glyph unicode="&#xe90a;" glyph-name="close" d="M64.003 959.999c-17.678-0.005-33.669-7.166-45.254-18.758v0c-11.582-11.582-18.737-27.581-18.737-45.254s7.166-33.667 18.737-45.254l895.997-895.997c11.582-11.582 27.581-18.737 45.254-18.737s33.667 7.166 45.254 18.737v0c11.582 11.582 18.737 27.581 18.737 45.254s-7.166 33.667-18.737 45.254l-895.997 895.997c-11.582 11.582-27.58 18.749-45.254 18.758v0zM959.997 959.999c-17.678-0.005-33.669-7.166-45.254-18.758l-895.997-895.997c-11.582-11.582-18.737-27.581-18.737-45.254s7.166-33.667 18.737-45.254v0c11.582-11.582 27.581-18.737 45.254-18.737s33.667 7.166 45.254 18.737l895.997 895.997c11.582 11.582 18.737 27.581 18.737 45.254s-7.166 33.667-18.737 45.254v0c-11.582 11.582-27.58 18.749-45.254 18.758v0z" />
<glyph unicode="&#xe90b;" glyph-name="times" d="M102.392 959.998c-28.283-0.012-53.868-11.461-72.397-30.002v0c-18.523-18.535-29.987-44.124-29.987-72.397s11.461-53.868 29.987-72.397l819.217-819.217c18.535-18.523 44.124-29.987 72.397-29.987s53.868 11.461 72.397 29.987v0c18.523 18.535 29.987 44.124 29.987 72.397s-11.461 53.868-29.987 72.397l-819.217 819.217c-18.529 18.541-44.124 29.99-72.397 30.002h-0.003zM921.608 959.998c-28.283-0.012-53.868-11.461-72.397-30.002l-819.217-819.217c-18.523-18.535-29.987-44.124-29.987-72.397s11.461-53.868 29.987-72.397v0c18.535-18.523 44.124-29.987 72.397-29.987s53.868 11.461 72.397 29.987l819.217 819.217c18.523 18.535 29.987 44.124 29.987 72.397s-11.461 53.868-29.987 72.397v0c-18.529 18.541-44.124 29.99-72.397 30.002h-0.003z" />
<glyph unicode="&#xe90c;" glyph-name="minus" d="M102.402 550.402c-56.554 0-102.402-45.848-102.402-102.402v0c0-56.554 45.848-102.402 102.402-102.402v0h819.197c56.554 0 102.402 45.848 102.402 102.402v0c0 56.554-45.848 102.402-102.402 102.402v0z" />
<glyph unicode="&#xe90d;" glyph-name="check-circle" d="M896 465.92v-39.253c-0.043-106.027-43.051-201.941-112.64-271.445s-165.547-112.384-271.573-112.299-201.984 43.051-271.445 112.64-112.384 165.504-112.341 271.573 43.051 201.941 112.64 271.445 165.547 112.384 271.573 112.341c56.747-0.043 110.336-12.331 155.691-33.067 21.419-9.813 46.763-0.341 56.533 21.077s0.341 46.763-21.077 56.533c-56.619 25.856-122.283 40.747-191.104 40.789-129.579 0.085-246.997-52.437-331.947-137.259s-137.557-202.24-137.643-331.819 52.437-246.997 137.259-331.947 202.197-137.6 331.776-137.643 246.997 52.437 331.947 137.259 137.6 202.197 137.685 331.819v39.253c0 23.552-19.115 42.667-42.667 42.667s-42.667-19.115-42.667-42.667zM908.501 798.166l-396.501-396.885-97.835 97.792c-16.683 16.683-43.691 16.683-60.331 0s-16.683-43.691 0-60.331l128-128c16.683-16.683 43.691-16.64 60.373 0l426.667 427.093c16.64 16.683 16.64 43.691-0.043 60.331s-43.691 16.64-60.331-0.043z" />
<glyph unicode="&#xe90e;" glyph-name="refresh" d="M514.194 906.102c-268.308 0-487.259-217.654-487.259-485.051s218.949-485.051 487.259-485.051c244.747 0 448.498 180.577 482.315 415.788 0.349 2.317 0.555 4.983 0.555 7.705 0 27.060-19.951 49.471-45.947 53.315l-0.296 0.037c-2.317 0.349-4.983 0.555-7.705 0.555-27.060 0-49.471-19.951-53.315-45.947l-0.037-0.296c-26.267-182.676-183.696-323.365-375.577-323.365-210.35 0-379.475 168.416-379.475 377.262s169.117 377.262 379.475 377.262c138.547 0 259.020-73.404 325.365-182.943 9.613-15.685 26.652-25.988 46.109-25.988 10.309 0 19.937 2.893 28.126 7.91l-0.233-0.133c15.685 9.613 25.988 26.652 25.988 46.109 0 10.309-2.893 19.937-7.91 28.126l0.133-0.233c-85.326 140.877-240.852 234.948-417.576 234.948zM889.241 960c-29.767 0-53.892-24.132-53.892-53.892v0-215.58h-215.58c-29.767 0-53.892-24.132-53.892-53.892v0c0-29.767 24.132-53.892 53.892-53.892v0h269.472c29.765 0.004 53.892 24.132 53.892 53.892v0 269.472c0 29.767-24.132 53.892-53.892 53.892v0z" />
<glyph unicode="&#xe90f;" glyph-name="burger-menu" d="M51.196 857.599c-28.276 0-51.196-22.923-51.196-51.196v0c0-28.276 22.923-51.196 51.196-51.196v0h921.609c28.276 0 51.196 22.923 51.196 51.196v0c0 28.276-22.923 51.196-51.196 51.196v0zM51.196 499.189c-28.276 0-51.196-22.923-51.196-51.196v0c0-28.276 22.923-51.196 51.196-51.196v0h921.609c28.276 0 51.196 22.923 51.196 51.196v0c0 28.276-22.923 51.196-51.196 51.196v0zM51.196 140.79c-28.276 0-51.196-22.923-51.196-51.196v0c0-28.276 22.923-51.196 51.196-51.196v0h921.609c28.276 0 51.196 22.923 51.196 51.196v0c0 28.276-22.923 51.196-51.196 51.196v0z" />
<glyph unicode="&#xe910;" glyph-name="info" d="M512 960c-282.218 0-512-229.782-512-512 0-282.215 229.781-512 512-512 282.215 0 512 229.785 512 512 0 282.219-229.785 512-512 512zM512 866.907c231.904 0 418.907-186.999 418.907-418.907 0-231.904-187.003-418.907-418.907-418.907s-418.907 187.001-418.907 418.907 186.999 418.907 418.907 418.907zM535.272 657.456c0-25.706-20.839-46.545-46.545-46.545s-46.545 20.84-46.545 46.545c0 25.706 20.84 46.545 46.545 46.545s46.545-20.84 46.545-46.545zM488.728 727.274c-38.285 0-69.818-31.533-69.818-69.818s31.533-69.818 69.818-69.818c38.285 0 69.818 31.535 69.818 69.818s-31.533 69.818-69.818 69.818zM488.728 680.726c13.13 0 23.272-10.138 23.272-23.272s-10.138-23.272-23.272-23.272c-13.128 0-23.272 10.138-23.272 23.272s10.138 23.272 23.272 23.272zM418.91 541.090c-25.706 0-46.545-20.84-46.545-46.545v0c0-25.706 20.84-46.545 46.545-46.545v0h46.545v-186.183c0-25.706 20.84-46.545 46.545-46.545v0c25.706 0 46.545 20.84 46.545 46.545v0 232.726c-0.004 25.705-20.842 46.544-46.545 46.545v0zM418.91 308.364c-25.706 0-46.545-20.84-46.545-46.545v0c0-25.706 20.84-46.545 46.545-46.545v0h186.183c25.706 0 46.545 20.84 46.545 46.545v0c0 25.706-20.84 46.545-46.545 46.545v0z" />
<glyph unicode="&#xe911;" glyph-name="headset" d="M860.442 551.115h-9.954v24.889c0 194.133-154.313 348.445-348.45 348.445-194.132 0-348.443-154.311-348.443-348.445v-24.889c-74.667-4.978-139.378-69.69-139.378-149.335v-99.554c0-84.621 64.711-149.333 149.333-149.333h99.556c29.867 0 49.777 19.913 49.777 49.779v298.667c0 29.866-19.91 49.777-49.777 49.777h-9.956v24.889c0 139.378 109.511 248.888 248.888 248.888 139.379 0 248.887-109.51 248.887-248.888v-24.889c-24.883-4.978-39.817-24.89-39.817-49.777v-298.667c0-29.867 19.913-49.779 49.779-49.779 0-29.867-19.913-49.779-49.779-49.779h-49.779c-19.913 44.8-64.713 74.667-114.492 74.667h-69.687c-69.689 0-124.444-54.754-124.444-124.442 0-69.692 54.755-124.446 124.444-124.446h69.687c49.779 0 94.579 29.867 114.492 74.667h49.779c84.617 0 149.333 64.713 149.333 149.333 84.617 0 149.333 64.713 149.333 149.333v99.554c0 84.625-64.717 149.335-149.333 149.335zM213.327 252.446h-49.778c-29.867 0-49.777 19.913-49.777 49.779v99.554c0 29.867 19.91 49.779 49.777 49.779h49.778v-199.113zM571.729 53.338c0-14.933-9.958-24.892-24.892-24.892h-69.687c-14.933 0-24.887 9.958-24.887 24.892s9.954 24.887 24.887 24.887h69.687c14.933 0 24.892-9.954 24.892-24.887zM910.221 302.225c0-29.867-19.913-49.779-49.779-49.779h-49.783v199.113h49.783c29.867 0 49.779-19.913 49.779-49.779v-99.554z" />
<glyph unicode="&#xe912;" glyph-name="x-in-a-circle" d="M512-64c-135.791 0-266.020 53.941-362.038 149.961s-149.962 226.248-149.962 362.039c0 135.791 53.943 266.020 149.962 362.038s226.247 149.962 362.038 149.962c135.791 0 266.020-53.943 362.039-149.962s149.961-226.247 149.961-362.038c0-135.791-53.941-266.020-149.961-362.039s-226.248-149.961-362.039-149.961zM607.573 448l122.88 122.88c27.307 27.307 27.307 68.267 0 95.573s-68.266 27.307-95.573 0l-122.88-122.88-122.88 122.88c-27.307 27.307-68.267 27.307-95.573 0s-27.307-68.266 0-95.573l122.88-122.88-122.88-122.88c-27.307-27.307-27.307-68.267 0-95.573 13.653-13.654 27.306-20.48 47.786-20.48s34.134 6.826 47.787 20.48l122.88 122.88 122.88-122.88c13.653-13.654 34.133-20.48 47.787-20.48s34.133 6.826 47.786 20.48c27.307 27.306 27.307 68.266 0 95.573l-122.88 122.88z" />
<glyph unicode="&#xe913;" glyph-name="small-arrow" horiz-adv-x="1365" d="M50.599 631.68l442.027-497.28c66.56-74.88 174.080-74.88 240.64 0l442.027 497.28c107.52 120.96 30.72 328.32-121.173 328.32h-884.054c-151.893 0-226.987-207.36-119.467-328.32z" />
<glyph unicode="&#xe914;" glyph-name="bell" horiz-adv-x="964" d="M279.547 195.421l-163.7 18.818c-124.129 14.27-159.334 177.918-52.052 241.968l4.345 2.594c58.408 34.87 94.178 97.885 94.178 165.91v34.112c0 166.335 134.842 301.176 301.176 301.176 166.338 0 301.175-134.842 301.175-301.176v-34.112c0-68.026 35.774-131.040 94.178-165.91l4.349-2.594c107.279-64.049 72.078-227.698-52.055-241.968l-170.183-19.558v-24.431c0-99.804-80.904-180.706-180.705-180.706s-180.706 80.902-180.706 180.706v25.172zM540.566 190.325h-160.627v-20.076c0-44.357 35.957-80.312 80.314-80.312s80.314 35.954 80.314 80.312v20.076z" />
<glyph unicode="&#xe92c;" glyph-name="copy" d="M640 704v256h-448l-192-192v-576h384v-256h640v768h-384zM192 869.49v-101.49h-101.49l101.49 101.49zM64 256v448h192v192h320v-192l-192-192v-256h-320zM576 613.49v-101.49h-101.49l101.49 101.49zM960 0h-512v448h192v192h320v-640z" />
<glyph unicode="&#xe93f;" glyph-name="credit-card" d="M928 832h-832c-52.8 0-96-43.2-96-96v-576c0-52.8 43.2-96 96-96h832c52.8 0 96 43.2 96 96v576c0 52.8-43.2 96-96 96zM96 768h832c17.346 0 32-14.654 32-32v-96h-896v96c0 17.346 14.654 32 32 32zM928 128h-832c-17.346 0-32 14.654-32 32v288h896v-288c0-17.346-14.654-32-32-32zM128 320h64v-128h-64zM256 320h64v-128h-64zM384 320h64v-128h-64z" />
<glyph unicode="&#xe986;" glyph-name="search" d="M992.262 88.604l-242.552 206.294c-25.074 22.566-51.89 32.926-73.552 31.926 57.256 67.068 91.842 154.078 91.842 249.176 0 212.078-171.922 384-384 384-212.076 0-384-171.922-384-384s171.922-384 384-384c95.098 0 182.108 34.586 249.176 91.844-1-21.662 9.36-48.478 31.926-73.552l206.294-242.552c35.322-39.246 93.022-42.554 128.22-7.356s31.892 92.898-7.354 128.22zM384 320c-141.384 0-256 114.616-256 256s114.616 256 256 256 256-114.616 256-256-114.614-256-256-256z" />
<glyph unicode="&#xea08;" glyph-name="notification" d="M512 864c-111.118 0-215.584-43.272-294.156-121.844s-121.844-183.038-121.844-294.156c0-111.118 43.272-215.584 121.844-294.156s183.038-121.844 294.156-121.844c111.118 0 215.584 43.272 294.156 121.844s121.844 183.038 121.844 294.156c0 111.118-43.272 215.584-121.844 294.156s-183.038 121.844-294.156 121.844zM512 960v0c282.77 0 512-229.23 512-512s-229.23-512-512-512c-282.77 0-512 229.23-512 512s229.23 512 512 512zM448 256h128v-128h-128zM448 768h128v-384h-128z" />
</font>
</defs>
</svg>
