<?xml version="1.0" encoding="UTF-8"?>
<svg version="1.1" xmlns="http://www.w3.org/2000/svg" width="300" height="200">
<path d="M0 0 C99 0 198 0 300 0 C300 66 300 132 300 200 C201 200 102 200 0 200 C0 134 0 68 0 0 Z " fill="#FDFDFD" transform="translate(0,0)"/>
<path d="M0 0 C6.85949999 4.52500749 10.55338737 9.48611605 13.54296875 17.03125 C15.55587836 27.82776516 13.82256805 35.43576855 7.85546875 44.53125 C5.04712781 48.25554214 1.70676045 50.72823332 -2.64453125 52.46875 C-7.35913553 53.02340933 -12.21746241 53.23610628 -16.76953125 51.71875 C-16.76953125 51.05875 -16.76953125 50.39875 -16.76953125 49.71875 C-17.55328125 49.409375 -18.33703125 49.1 -19.14453125 48.78125 C-21.76953125 47.71875 -21.76953125 47.71875 -23.76953125 46.71875 C-23.76953125 46.05875 -23.76953125 45.39875 -23.76953125 44.71875 C-24.42953125 44.71875 -25.08953125 44.71875 -25.76953125 44.71875 C-26.4208805 43.15854133 -27.06536089 41.59546421 -27.70703125 40.03125 C-28.06667969 39.16113281 -28.42632812 38.29101562 -28.796875 37.39453125 C-32.06648003 28.39983467 -31.28987718 19.51961482 -27.76953125 10.71875 C-21.61110231 1.12717389 -11.24895095 -5.20402809 0 0 Z " fill="#D96A2E" transform="translate(162.76953125,74.28125)"/>
<path d="M0 0 C20.47115385 0 20.47115385 0 26 5 C32.74081352 12.26835545 34.46489645 18.56812002 34.3203125 28.41015625 C33.75957913 34.69447293 31.83910079 39.72816962 27.875 44.625 C26 46 26 46 24 46 C24 46.66 24 47.32 24 48 C15.19180761 51.70871258 10.6653806 51 0 51 C0 34.17 0 17.34 0 0 Z " fill="#0A0A0A" transform="translate(16,73)"/>
<path d="M0 0 C17 0 17 0 24 4 C27.36544083 8.66819212 27.88317656 13.41948878 27 19 C25.37745282 23.31847174 22.9826288 26.58197537 19 29 C20.57263975 33.53646083 22.97744683 37.22858064 25.625 41.1875 C30 47.72986963 30 47.72986963 30 50 C26.7 50 23.4 50 20 50 C18.32818524 47.04447033 16.66237821 44.08583038 15 41.125 C14.52304687 40.28324219 14.04609375 39.44148438 13.5546875 38.57421875 C13.10351562 37.76855469 12.65234375 36.96289062 12.1875 36.1328125 C11.76855469 35.38918457 11.34960938 34.64555664 10.91796875 33.87939453 C10 32 10 32 10 30 C9.34 30 8.68 30 8 30 C8 36.6 8 43.2 8 50 C5.36 50 2.72 50 0 50 C0 33.5 0 17 0 0 Z " fill="#060606" transform="translate(248,74)"/>
<path d="M0 0 C7.59 0 15.18 0 23 0 C23 2.97 23 5.94 23 9 C18.05 9 13.1 9 8 9 C8 12.63 8 16.26 8 20 C12.95 20 17.9 20 23 20 C23 22.97 23 25.94 23 29 C18.05 29 13.1 29 8 29 C8 33.29 8 37.58 8 42 C12.95 42 17.9 42 23 42 C23 44.97 23 47.94 23 51 C15.41 51 7.82 51 0 51 C0 34.17 0 17.34 0 0 Z " fill="#0D0D0D" transform="translate(219,73)"/>
<path d="M0 0 C2.62114968 1.42485502 3.97353425 2.74837139 6 5 C5.01 6.98 4.02 8.96 3 11 C2.484375 10.835 1.96875 10.67 1.4375 10.5 C-2.38650845 9.71558801 -6.44291427 9.22145713 -10 11 C-10.41780879 13.37305578 -10.41780879 13.37305578 -10 16 C-7.55503957 17.71711243 -7.55503957 17.71711243 -5 19 C-5 19.66 -5 20.32 -5 21 C-4.29875 21.0825 -3.5975 21.165 -2.875 21.25 C1.52213854 22.39707962 4.92107049 24.28352123 7.375 28.1875 C8.93796241 35.22083084 8.26118406 40.61351455 5 47 C4.34 47 3.68 47 3 47 C3 47.66 3 48.32 3 49 C-1.56452376 51.67191635 -4.71789484 52.63749545 -10 52 C-15.90553744 50.03887406 -19.03913008 47.42826153 -22 42 C-21.67 41.34 -21.34 40.68 -21 40 C-20.34 40 -19.68 40 -19 40 C-18.67 39.01 -18.34 38.02 -18 37 C-16.68 37.66 -15.36 38.32 -14 39 C-14 39.66 -14 40.32 -14 41 C-12.56589632 41.24954005 -11.12739928 41.47392642 -9.6875 41.6875 C-8.88699219 41.81511719 -8.08648437 41.94273438 -7.26171875 42.07421875 C-4.95174862 42.20117619 -4.95174862 42.20117619 -3.21875 40.78125 C-1.72596925 38.59949352 -1.68387325 37.42791051 -1.8125 34.8125 C-1.874375 33.554375 -1.93625 32.29625 -2 31 C-2.639375 30.773125 -3.27875 30.54625 -3.9375 30.3125 C-6.57957784 29.18018093 -9.08750688 27.97032669 -11.625 26.625 C-12.75808594 26.02558594 -12.75808594 26.02558594 -13.9140625 25.4140625 C-17.24372964 23.15687242 -18.75496891 21.24291133 -19.5390625 17.265625 C-19.69358978 11.84312226 -19.52923918 7.72896084 -16.25 3.25 C-11.56009082 -1.32528818 -6.17058772 -1.33994782 0 0 Z " fill="#0B0B0B" transform="translate(87,73)"/>
<path d="M0 0 C2.97 0 5.94 0 9 0 C10.45890406 4.2081357 11.91702242 8.41654323 13.375 12.625 C13.99375 14.40970703 13.99375 14.40970703 14.625 16.23046875 C15.02460938 17.38417969 15.42421875 18.53789063 15.8359375 19.7265625 C16.20251465 20.78439941 16.5690918 21.84223633 16.94677734 22.93212891 C17.98248274 25.948975 18.99610297 28.97243702 20 32 C21.10804975 28.87636366 22.21069538 25.7508441 23.3125 22.625 C23.62123047 21.75488281 23.92996094 20.88476562 24.24804688 19.98828125 C26.11953636 14.66931114 27.83211175 9.33532587 29.37573242 3.91162109 C30 2 30 2 31 1 C32.51928038 0.92820036 34.04167482 0.91607993 35.5625 0.9375 C36.38878906 0.94652344 37.21507812 0.95554687 38.06640625 0.96484375 C38.70449219 0.97644531 39.34257812 0.98804687 40 1 C37.8898281 8.53368389 35.31645543 15.88992613 32.6875 23.25390625 C31.48216596 26.63069811 30.2976568 30.01406532 29.125 33.40234375 C28.81272461 34.30291504 28.50044922 35.20348633 28.17871094 36.13134766 C27.57062975 37.88685438 26.9644365 39.64301647 26.36035156 41.39990234 C26.0815918 42.20250488 25.80283203 43.00510742 25.515625 43.83203125 C25.27102539 44.54077393 25.02642578 45.2495166 24.77441406 45.97973633 C23.97514578 48.06483879 23.03033313 50.02019321 22 52 C20.35 52 18.7 52 17 52 C15.06023953 46.46848736 13.12138868 40.93665701 11.18334961 35.40454102 C10.52506588 33.52587445 9.86654144 31.64729221 9.20776367 29.76879883 C8.25635211 27.05572741 7.30583059 24.34234552 6.35546875 21.62890625 C6.0647197 20.80040665 5.77397064 19.97190704 5.47441101 19.11830139 C4.64451616 16.74726916 3.82146784 14.3739633 3 12 C2.71097809 11.17660126 2.42195618 10.35320251 2.12417603 9.50485229 C1.84899139 8.70652985 1.57380676 7.9082074 1.2902832 7.08569336 C1.04212357 6.37207138 0.79396393 5.6584494 0.5382843 4.92320251 C0 3 0 3 0 0 Z " fill="#090909" transform="translate(175,73)"/>
<path d="M0 0 C1.26237731 2.52475462 1.09856404 4.31200466 1.0625 7.125 C1.05347656 8.03507812 1.04445312 8.94515625 1.03515625 9.8828125 C1.02355469 10.58148438 1.01195312 11.28015625 1 12 C-1 11 -3 10 -5 9 C-9.23660902 8.56718336 -12.91394711 8.55141294 -16.875 10.1875 C-20.22513837 13.04497097 -21.83068616 15.6886477 -22.3984375 20.0859375 C-22.35315141 26.44108499 -22.27323278 31.46068299 -19 37 C-18.34 37.33 -17.68 37.66 -17 38 C-17 38.66 -17 39.32 -17 40 C-12.35765919 41.48554906 -6.56184399 41.93001092 -2 40 C-1.67 39.01 -1.34 38.02 -1 37 C-0.34 37 0.32 37 1 37 C1 40.63 1 44.26 1 48 C-5.07581094 51.03790547 -11.86597108 51.09933572 -18.453125 49.34765625 C-24.38183427 46.71141721 -27.57328921 42.52650692 -29.96875 36.60546875 C-33.04582471 27.33150749 -32.64829956 19.06670002 -29 10 C-27.24932873 7.36442659 -25.2791562 5.18419136 -23 3 C-22.50886719 2.46761719 -22.01773438 1.93523437 -21.51171875 1.38671875 C-16.21018492 -3.47644536 -6.00559022 -3.27577648 0 0 Z " fill="#0D0D0C" transform="translate(129,74)"/>
<path d="M0 0 C4.06018035 2.76186687 7.22526163 4.93660207 9.125 9.578125 C7.125 8.578125 5.125 7.578125 3.125 6.578125 C3.125 8.558125 3.125 10.538125 3.125 12.578125 C1.125 9.578125 1.125 9.578125 0.125 7.578125 C-2.185 7.908125 -4.495 8.238125 -6.875 8.578125 C-6.545 8.908125 -6.215 9.238125 -5.875 9.578125 C-5.80273498 11.43100002 -5.7911878 13.28646378 -5.8125 15.140625 C-5.82152344 16.15253906 -5.83054688 17.16445312 -5.83984375 18.20703125 C-5.85144531 18.98949219 -5.86304688 19.77195312 -5.875 20.578125 C-8.26171875 21.16796875 -8.26171875 21.16796875 -10.875 21.578125 C-12.6875 20.140625 -12.6875 20.140625 -13.875 18.578125 C-13.875 20.888125 -13.875 23.198125 -13.875 25.578125 C-14.535 25.908125 -15.195 26.238125 -15.875 26.578125 C-16.205 27.238125 -16.535 27.898125 -16.875 28.578125 C-17.535 28.578125 -18.195 28.578125 -18.875 28.578125 C-19.205 27.588125 -19.535 26.598125 -19.875 25.578125 C-22.63723278 28.34035778 -22.45356291 30.78519117 -22.875 34.578125 C-23.535 34.578125 -24.195 34.578125 -24.875 34.578125 C-24.545 32.928125 -24.215 31.278125 -23.875 29.578125 C-25.525 29.908125 -27.175 30.238125 -28.875 30.578125 C-28.53275391 31.39216797 -28.53275391 31.39216797 -28.18359375 32.22265625 C-27.89613281 32.93808594 -27.60867187 33.65351562 -27.3125 34.390625 C-27.02246094 35.09832031 -26.73242188 35.80601563 -26.43359375 36.53515625 C-25.875 38.578125 -25.875 38.578125 -26.875 41.578125 C-31.27719423 31.8167378 -31.96322471 23.5531167 -28.921875 13.1953125 C-26.57133968 7.31897421 -21.98680385 3.17020338 -16.875 -0.421875 C-11.17641844 -2.32140219 -5.47620652 -2.70834127 0 0 Z " fill="#D6582C" transform="translate(162.875,74.421875)"/>
<path d="M0 0 C0.33 0 0.66 0 1 0 C1.68515208 10.18212123 -0.50784001 17.35789706 -6.64453125 25.49609375 C-9.68680562 28.87152785 -13.44671964 31.46431996 -18 32 C-22.11073701 32.187627 -26.04963083 32.31678972 -30 31 C-30 30.34 -30 29.68 -30 29 C-31.175625 28.5359375 -31.175625 28.5359375 -32.375 28.0625 C-35 27 -35 27 -37 26 C-37 25.34 -37 24.68 -37 24 C-37.66 24 -38.32 24 -39 24 C-38.67 23.34 -38.34 22.68 -38 22 C-37.34 22.33 -36.68 22.66 -36 23 C-35.34 20.36 -34.68 17.72 -34 15 C-33.01 16.32 -32.02 17.64 -31 19 C-29.42726432 16.1575146 -29.42726432 16.1575146 -29 13 C-28.01 13 -27.02 13 -26 13 C-25.34 12.34 -24.68 11.68 -24 11 C-23.67 11.66 -23.34 12.32 -23 13 C-21.68 11.35 -20.36 9.7 -19 8 C-19 9.32 -19 10.64 -19 12 C-18.34 12 -17.68 12 -17 12 C-17 11.34 -17 10.68 -17 10 C-17.33 10 -17.66 10 -18 10 C-18 8.35 -18 6.7 -18 5 C-17.236875 5.66 -16.47375 6.32 -15.6875 7 C-13.15722061 9.29850538 -13.15722061 9.29850538 -10 9 C-6.15774872 7.87609721 -6.15774872 7.87609721 -3.6875 4.875 C-3.460625 4.25625 -3.23375 3.6375 -3 3 C-2.34 3.33 -1.68 3.66 -1 4 C-0.67 2.68 -0.34 1.36 0 0 Z " fill="#F59322" transform="translate(176,95)"/>
<path d="M0 0 C10.8442623 1.20491803 10.8442623 1.20491803 14 4 C17.32261826 8.84184174 18.72694892 13.08055879 18 19 C17.28011132 22.13850746 16.54723767 25.16532202 15 28 C12.890625 29.26171875 12.890625 29.26171875 11 30 C11 30.66 11 31.32 11 32 C9 33 9 33 0 33 C0 22.11 0 11.22 0 0 Z " fill="#F9F9F9" transform="translate(24,82)"/>
<path d="M0 0 C2.64 0 5.28 0 8 0 C8 16.5 8 33 8 50 C5.36 50 2.72 50 0 50 C0 33.5 0 17 0 0 Z " fill="#020202" transform="translate(54,74)"/>
<path d="M0 0 C2.90802461 2.21928194 4.95312762 3.92969143 7 7 C7.1953125 9.48046875 7.1953125 9.48046875 7.125 12.1875 C7.10695312 13.08855469 7.08890625 13.98960938 7.0703125 14.91796875 C7.04710937 15.60503906 7.02390625 16.29210937 7 17 C5 16 5 16 4 15 C4.33 15.99 4.66 16.98 5 18 C5.33 18 5.66 18 6 18 C6 19.65 6 21.3 6 23 C5.01 22.34 4.02 21.68 3 21 C1.02 21.99 1.02 21.99 -1 23 C-2.70840281 21.36587557 -3.93453047 20.13093906 -5 18 C-5.33 19.32 -5.66 20.64 -6 22 C-6.66 22 -7.32 22 -8 22 C-8.33 22.66 -8.66 23.32 -9 24 C-9.99 22.68 -10.98 21.36 -12 20 C-12.66 21.32 -13.32 22.64 -14 24 C-16.5 22.625 -16.5 22.625 -19 21 C-19 20.34 -19 19.68 -19 19 C-19.66 19 -20.32 19 -21 19 C-20.67 18.34 -20.34 17.68 -20 17 C-19.34 17.33 -18.68 17.66 -18 18 C-17.34 15.36 -16.68 12.72 -16 10 C-15.01 11.32 -14.02 12.64 -13 14 C-11.42726432 11.1575146 -11.42726432 11.1575146 -11 8 C-10.01 8 -9.02 8 -8 8 C-7.34 7.34 -6.68 6.68 -6 6 C-5.67 6.66 -5.34 7.32 -5 8 C-3.68 6.35 -2.36 4.7 -1 3 C-1 4.32 -1 5.64 -1 7 C-0.34 7 0.32 7 1 7 C1 6.34 1 5.68 1 5 C0.67 5 0.34 5 0 5 C0 3.35 0 1.7 0 0 Z " fill="#F68929" transform="translate(158,100)"/>
<path d="M0 0 C2.52588702 2.36292656 3.88820837 3.66462511 5 7 C5.06970052 9.39490986 5.08448003 11.79167691 5.0625 14.1875 C5.05347656 15.45980469 5.04445312 16.73210937 5.03515625 18.04296875 C5.02355469 19.01878906 5.01195312 19.99460937 5 21 C4.67 21 4.34 21 4 21 C3.67 19.02 3.34 17.04 3 15 C2.608125 15.61875 2.21625 16.2375 1.8125 16.875 C-0.30393148 19.35633346 -1.98795251 19.87048219 -5 21 C-6.77277259 22.52007842 -6.77277259 22.52007842 -8 24 C-8.103125 23.401875 -8.20625 22.80375 -8.3125 22.1875 C-9.08876455 19.71756736 -10.07088921 18.67748765 -12 17 C-11.67 17.66 -11.34 18.32 -11 19 C-10.67 19.66 -10.34 20.32 -10 21 C-10.9375 23.125 -10.9375 23.125 -12 25 C-12 24.34 -12 23.68 -12 23 C-13.65 22.67 -15.3 22.34 -17 22 C-17 19.03 -17 16.06 -17 13 C-15.35 12.34 -13.7 11.68 -12 11 C-12.33 10.67 -12.66 10.34 -13 10 C-13.07179964 8.48071962 -13.08392007 6.95832518 -13.0625 5.4375 C-13.05347656 4.61121094 -13.04445312 3.78492187 -13.03515625 2.93359375 C-13.02355469 2.29550781 -13.01195312 1.65742187 -13 1 C-12.67 1 -12.34 1 -12 1 C-11.67 2.98 -11.34 4.96 -11 7 C-10.34 6.67 -9.68 6.34 -9 6 C-8.67 6.66 -8.34 7.32 -8 8 C-7.01 8 -6.02 8 -5 8 C-4.731875 7.05125 -4.46375 6.1025 -4.1875 5.125 C-3 2 -3 2 0 0 Z " fill="#DD7C2C" transform="translate(171,84)"/>
<path d="M0 0 C2.6875 2 2.6875 2 4 4 C1.69 4.33 -0.62 4.66 -3 5 C-3 4.67 -3 4.34 -3 4 C-4.45880109 4.14107747 -5.91703551 4.28802415 -7.375 4.4375 C-8.18710938 4.51871094 -8.99921875 4.59992188 -9.8359375 4.68359375 C-12.04272805 4.89090114 -12.04272805 4.89090114 -14 6 C-14.33 6.66 -14.66 7.32 -15 8 C-15 7.34 -15 6.68 -15 6 C-16.70840281 7.63412443 -17.93453047 8.86906094 -19 11 C-19.66 11 -20.32 11 -21 11 C-22.79217969 16.16569441 -23.12029814 19.51053913 -22 25 C-22.66 25 -23.32 25 -24 25 C-23.67 26.32 -23.34 27.64 -23 29 C-23.66 29 -24.32 29 -25 29 C-24.67 29.99 -24.34 30.98 -24 32 C-24.66 32 -25.32 32 -26 32 C-25.65775391 32.81404297 -25.65775391 32.81404297 -25.30859375 33.64453125 C-25.02113281 34.35996094 -24.73367187 35.07539062 -24.4375 35.8125 C-24.14746094 36.52019531 -23.85742188 37.22789063 -23.55859375 37.95703125 C-23 40 -23 40 -24 43 C-28.40219423 33.2386128 -29.08822471 24.9749917 -26.046875 14.6171875 C-23.69633968 8.74084921 -19.11180385 4.59207838 -14 1 C-9.39885754 -0.53371415 -4.8049918 -0.55386882 0 0 Z " fill="#A5594D" transform="translate(160,73)"/>
<path d="M0 0 C4.875 2.75 4.875 2.75 6 5 C6.33 4.01 6.66 3.02 7 2 C10.875 3.75 10.875 3.75 12 6 C11.25 7.75 11.25 7.75 10 10 C9.46375 11.0725 8.9275 12.145 8.375 13.25 C7.92125 14.1575 7.4675 15.065 7 16 C6.34 15.01 5.68 14.02 5 13 C4.01 13 3.02 13 2 13 C1.34 12.67 0.68 12.34 0 12 C0.33 13.65 0.66 15.3 1 17 C-0.65 17.66 -2.3 18.32 -4 19 C-3.938125 20.423125 -3.938125 20.423125 -3.875 21.875 C-4 25 -4 25 -6 27 C-6.99 24.03 -7.98 21.06 -9 18 C-7 16 -7 16 -4 15 C-3.67 15.33 -3.34 15.66 -3 16 C-2.67 12.37 -2.34 8.74 -2 5 C-2.66 4.67 -3.32 4.34 -4 4 C-2.68 3.67 -1.36 3.34 0 3 C0 2.01 0 1.02 0 0 Z " fill="#E96626" transform="translate(159,79)"/>
<path d="M0 0 C6 0 6 0 8.375 1 C10.48205268 3.5932956 10.56430314 5.77361313 10.3828125 9.05859375 C10 11 10 11 8.375 13.5 C6 15 6 15 0 15 C0 10.05 0 5.1 0 0 Z " fill="#F7F8F7" transform="translate(256,82)"/>
<path d="M0 0 C1.9375 0.3125 1.9375 0.3125 4 1 C5.18681726 4.56045177 5.09689832 7.43808337 5.0625 11.1875 C5.05347656 12.45980469 5.04445312 13.73210937 5.03515625 15.04296875 C5.02355469 16.01878906 5.01195312 16.99460937 5 18 C4.67 18 4.34 18 4 18 C3.67 16.02 3.34 14.04 3 12 C2.01 13.32 1.02 14.64 0 16 C-1.65 15.67 -3.3 15.34 -5 15 C-4.88637738 13.5199159 -4.75877092 12.04089926 -4.625 10.5625 C-4.55539063 9.73878906 -4.48578125 8.91507813 -4.4140625 8.06640625 C-4.20910156 7.04353516 -4.20910156 7.04353516 -4 6 C-3.34 5.67 -2.68 5.34 -2 5 C-0.54714531 2.6421399 -0.54714531 2.6421399 0 0 Z " fill="#F17F23" transform="translate(171,87)"/>
<path d="M0 0 C1.4606285 2.64738916 2 3.89448334 2 7 C2.66 6.67 3.32 6.34 4 6 C4.22226864 7.76913824 4.42733873 9.54044371 4.625 11.3125 C4.74101562 12.29863281 4.85703125 13.28476563 4.9765625 14.30078125 C5 17 5 17 3 20 C2.67 19.01 2.34 18.02 2 17 C-1.16299302 18.69449476 -1.16299302 18.69449476 -2 21.5625 C-2.33 22.366875 -2.66 23.17125 -3 24 C-3.99 24.33 -4.98 24.66 -6 25 C-5.67 23.68 -5.34 22.36 -5 21 C-4.34 21.33 -3.68 21.66 -3 22 C-3.66 19.69 -4.32 17.38 -5 15 C-4.34 15 -3.68 15 -3 15 C-3.33 14.01 -3.66 13.02 -4 12 C-3.0625 9.8125 -3.0625 9.8125 -2 8 C-1.34 8.33 -0.68 8.66 0 9 C-0.185625 7.700625 -0.37125 6.40125 -0.5625 5.0625 C-0.87890625 2.84765625 -0.87890625 2.84765625 -1 1 C-0.67 0.67 -0.34 0.34 0 0 Z " fill="#DB6B26" transform="translate(149,91)"/>
<path d="M0 0 C0.99 0.33 1.98 0.66 3 1 C2.87431641 1.92232422 2.87431641 1.92232422 2.74609375 2.86328125 C2.64425781 3.67152344 2.54242188 4.47976562 2.4375 5.3125 C2.33308594 6.11300781 2.22867188 6.91351563 2.12109375 7.73828125 C1.85244822 10.16817116 1.85244822 10.16817116 3 13 C2.34 13 1.68 13 1 13 C1.33 14.32 1.66 15.64 2 17 C1.34 17 0.68 17 0 17 C0.33 17.99 0.66 18.98 1 20 C0.34 20 -0.32 20 -1 20 C-0.77183594 20.54269531 -0.54367188 21.08539063 -0.30859375 21.64453125 C-0.02113281 22.35996094 0.26632813 23.07539062 0.5625 23.8125 C0.85253906 24.52019531 1.14257812 25.22789063 1.44140625 25.95703125 C2 28 2 28 1 31 C-3.99772669 19.91808431 -3.55883791 11.5238561 0 0 Z " fill="#AC3B20" transform="translate(135,85)"/>
<path d="M0 0 C2.2477975 2.05233685 3.0022242 3.00667261 4 6 C4.66 6 5.32 6 6 6 C6.33 7.65 6.66 9.3 7 11 C7.99 11 8.98 11 10 11 C9 13 9 13 7 14 C5.29159719 12.36587557 4.06546953 11.13093906 3 9 C2.67 10.32 2.34 11.64 2 13 C1.34 13 0.68 13 0 13 C-0.33 13.66 -0.66 14.32 -1 15 C-1.45375 14.360625 -1.9075 13.72125 -2.375 13.0625 C-3.83921726 10.90297594 -3.83921726 10.90297594 -6 10 C-6.33 10.66 -6.66 11.32 -7 12 C-6.625 10.0625 -6.625 10.0625 -6 8 C-5.34 7.67 -4.68 7.34 -4 7 C-4 7.66 -4 8.32 -4 9 C-2.68 9.33 -1.36 9.66 0 10 C-0.2784375 8.63875 -0.2784375 8.63875 -0.5625 7.25 C-0.95734621 4.31685676 -0.94691572 2.7355343 0 0 Z " fill="#E3892C" transform="translate(150,109)"/>
<path d="M0 0 C0.33 0 0.66 0 1 0 C1.3690205 11.52164009 1.3690205 11.52164009 -1 17 C-3.66666667 14.33333333 -6.33333333 11.66666667 -9 9 C-8.38125 8.7525 -7.7625 8.505 -7.125 8.25 C-4.64931313 6.79371361 -4.04874998 5.62187494 -3 3 C-2.34 3.33 -1.68 3.66 -1 4 C-0.67 2.68 -0.34 1.36 0 0 Z " fill="#E8983A" transform="translate(176,95)"/>
<path d="M0 0 C0.33 1.32 0.66 2.64 1 4 C1.66 4 2.32 4 3 4 C2.67 5.65 2.34 7.3 2 9 C2.66 9 3.32 9 4 9 C3.67 10.32 3.34 11.64 3 13 C0.69 12.67 -1.62 12.34 -4 12 C-4.66 9.69 -5.32 7.38 -6 5 C-5.34 4.34 -4.68 3.68 -4 3 C-3.67 3.66 -3.34 4.32 -3 5 C-2.01 3.35 -1.02 1.7 0 0 Z " fill="#EE8222" transform="translate(156,103)"/>
<path d="M0 0 C3 1 3 1 4 3 C4.33 2.01 4.66 1.02 5 0 C8.875 1.75 8.875 1.75 10 4 C9.0625 6.125 9.0625 6.125 8 8 C4 8 4 8 1 7 C0.67 4.69 0.34 2.38 0 0 Z " fill="#D66B22" transform="translate(161,81)"/>
<path d="M0 0 C1.65 0.33 3.3 0.66 5 1 C5.125 3.875 5.125 3.875 5 7 C4.34 7.66 3.68 8.32 3 9 C2.01 9 1.02 9 0 9 C-1.125 6.75 -1.125 6.75 -2 4 C-1.125 1.6875 -1.125 1.6875 0 0 Z " fill="#79777A" transform="translate(278,73)"/>
<path d="M0 0 C0.66 -0.33 1.32 -0.66 2 -1 C2 -0.01 2 0.98 2 2 C-3.36439644 4.68219822 -7.01006953 5.3152595 -13 5 C-13 4.67 -13 4.34 -13 4 C-11.35 4 -9.7 4 -8 4 C-7.67 2.35 -7.34 0.7 -7 -1 C-3.51418144 -2.2020064 -3.32007656 -2.21338437 0 0 Z " fill="#F5A03A" transform="translate(163,122)"/>
<path d="M0 0 C1.32 0.33 2.64 0.66 4 1 C4.16820551 2.93736701 4.33451095 4.87489906 4.5 6.8125 C4.5928125 7.89144531 4.685625 8.97039062 4.78125 10.08203125 C5 13 5 13 5 16 C4.34 16.33 3.68 16.66 3 17 C2.34 17.66 1.68 18.32 1 19 C1.01160156 18.21496094 1.02320313 17.42992188 1.03515625 16.62109375 C1.08375507 10.96280225 1.01294749 5.57121122 0 0 Z " fill="#E9632B" transform="translate(144,84)"/>
<path d="M0 0 C2.75 0.125 2.75 0.125 6 1 C8.375 4.0625 8.375 4.0625 10 7 C8 6 6 5 4 4 C4 5.98 4 7.96 4 10 C2 7 2 7 1 5 C0.01 5 -0.98 5 -2 5 C-2 4.01 -2 3.02 -2 2 C-1.34 2 -0.68 2 0 2 C0 1.34 0 0.68 0 0 Z " fill="#CA4F2F" transform="translate(162,77)"/>
<path d="M0 0 C1.32 0 2.64 0 4 0 C4 0.66 4 1.32 4 2 C3.34 2 2.68 2 2 2 C2.515625 2.763125 3.03125 3.52625 3.5625 4.3125 C4.036875 5.199375 4.51125 6.08625 5 7 C4 10 4 10 2 11 C1.690625 11.825 1.38125 12.65 1.0625 13.5 C0.5365625 14.7375 0.5365625 14.7375 0 16 C-0.99 16.33 -1.98 16.66 -3 17 C-2.67 15.68 -2.34 14.36 -2 13 C-1.34 13.33 -0.68 13.66 0 14 C-0.66 11.69 -1.32 9.38 -2 7 C-1.34 7 -0.68 7 0 7 C-0.33 6.01 -0.66 5.02 -1 4 C-0.5625 1.8125 -0.5625 1.8125 0 0 Z " fill="#D37727" transform="translate(146,99)"/>
<path d="M0 0 C0.33 0 0.66 0 1 0 C1.33 1.98 1.66 3.96 2 6 C2.66 5.67 3.32 5.34 4 5 C4.33 5.66 4.66 6.32 5 7 C5.66 6.67 6.32 6.34 7 6 C6.38722388 8.96175123 5.74627478 10.38058783 4 13 C4.66 13 5.32 13 6 13 C5.67 13.66 5.34 14.32 5 15 C4.01 15 3.02 15 2 15 C1.855625 14.195625 1.71125 13.39125 1.5625 12.5625 C1.25864751 10.07896294 1.25864751 10.07896294 0 9 C-0.07179964 7.48071962 -0.08392007 5.95832518 -0.0625 4.4375 C-0.05347656 3.61121094 -0.04445312 2.78492187 -0.03515625 1.93359375 C-0.02355469 1.29550781 -0.01195312 0.65742187 0 0 Z " fill="#E06A2C" transform="translate(158,85)"/>
<path d="M0 0 C2.5519126 4.59344268 3.14901031 8.78463905 3 14 C2.34 12.68 1.68 11.36 1 10 C-0.32 10 -1.64 10 -3 10 C-3.36923077 3.47692308 -3.36923077 3.47692308 -1.5 1.0625 C-1.005 0.711875 -0.51 0.36125 0 0 Z " fill="#ED6B22" transform="translate(143,99)"/>
<path d="M0 0 C0.99 0.66 1.98 1.32 3 2 C1.89066788 4.21866425 0.4862968 6.01827094 -1 8 C-1.33 8.66 -1.66 9.32 -2 10 C-2.66 9.67 -3.32 9.34 -4 9 C-3.690625 9.8971875 -3.690625 9.8971875 -3.375 10.8125 C-3 13 -3 13 -5 16 C-6.58706048 11.527375 -5.40547754 8.30234252 -3.984375 3.98828125 C-3 2 -3 2 0 0 Z " fill="#D37328" transform="translate(171,84)"/>
<path d="M0 0 C1.9375 0.3125 1.9375 0.3125 4 1 C5.18681726 4.56045177 5.09689832 7.43808337 5.0625 11.1875 C5.05347656 12.45980469 5.04445312 13.73210937 5.03515625 15.04296875 C5.02355469 16.01878906 5.01195312 16.99460937 5 18 C4.67 18 4.34 18 4 18 C4 15.36 4 12.72 4 10 C3.34 9.67 2.68 9.34 2 9 C0.75938546 5.82954062 0 3.41761705 0 0 Z " fill="#F17C10" transform="translate(171,87)"/>
<path d="M0 0 C0.66 0.33 1.32 0.66 2 1 C2 3.97 2 6.94 2 10 C0.35 10.33 -1.3 10.66 -3 11 C-3.80967438 8.08517222 -4.21845993 6.53886783 -3.0625 3.6875 C-2.711875 3.130625 -2.36125 2.57375 -2 2 C-2 3.32 -2 4.64 -2 6 C-1.34 6 -0.68 6 0 6 C0 4.02 0 2.04 0 0 Z " fill="#D7652B" transform="translate(155,85)"/>
<path d="M0 0 C4.875 3.625 4.875 3.625 6 7 C5.0625 10.1875 5.0625 10.1875 4 13 C2 9.25 2 9.25 2 7 C1.34 7 0.68 7 0 7 C0 4.69 0 2.38 0 0 Z " fill="#ED9C31" transform="translate(165,108)"/>
<path d="M0 0 C3 1 3 1 4 3 C4.13415472 5.6723621 4.04318541 8.32250488 4 11 C3.34 11 2.68 11 2 11 C2.33 9.35 2.66 7.7 3 6 C1.68 6 0.36 6 -1 6 C-0.67 4.02 -0.34 2.04 0 0 Z " fill="#DE5C26" transform="translate(136,98)"/>
<path d="M0 0 C4.875 4.625 4.875 4.625 6 8 C5.01 9.485 5.01 9.485 4 11 C3.67 10.01 3.34 9.02 3 8 C2.01 8.495 2.01 8.495 1 9 C0.67 6.03 0.34 3.06 0 0 Z " fill="#F46C28" transform="translate(161,84)"/>
<path d="M0 0 C1.65 0 3.3 0 5 0 C5 0.99 5 1.98 5 3 C4.34 3 3.68 3 3 3 C3 4.98 3 6.96 3 9 C2.34 9 1.68 9 1 9 C-1 6 -1 6 -0.625 2.8125 C-0.41875 1.884375 -0.2125 0.95625 0 0 Z " fill="#D85B20" transform="translate(147,82)"/>
<path d="M0 0 C0.33 0 0.66 0 1 0 C1.19620767 2.06168985 1.38160753 4.12440998 1.5625 6.1875 C1.66691406 7.33605469 1.77132812 8.48460938 1.87890625 9.66796875 C1.98859985 12.68631199 1.74002389 15.08923936 1 18 C0.67 18 0.34 18 0 18 C-1.2398524 5.55719557 -1.2398524 5.55719557 -1 1 C-0.67 0.67 -0.34 0.34 0 0 Z " fill="#CD582F" transform="translate(144,85)"/>
<path d="M0 0 C0.33 0.99 0.66 1.98 1 3 C0.01 3 -0.98 3 -2 3 C-2.103125 3.7425 -2.20625 4.485 -2.3125 5.25 C-3.04253504 8.17014018 -4.06789398 9.73187554 -6 12 C-5.07692308 4 -5.07692308 4 -3 1 C-2.01 0.67 -1.02 0.34 0 0 Z " fill="#CE442E" transform="translate(142,83)"/>
<path d="M0 0 C0.680625 0.08765625 1.36125 0.1753125 2.0625 0.265625 C4 0.75 4 0.75 7 2.75 C4.69 3.08 2.38 3.41 0 3.75 C0 3.42 0 3.09 0 2.75 C-2.31 2.42 -4.62 2.09 -7 1.75 C-3.83050223 -0.36299851 -3.49404825 -0.50293119 0 0 Z " fill="#A32E22" transform="translate(157,74.25)"/>
<path d="M0 0 C0.33 0 0.66 0 1 0 C1.06058594 0.62648438 1.12117187 1.25296875 1.18359375 1.8984375 C1.26738281 2.71570313 1.35117188 3.53296875 1.4375 4.375 C1.55931641 5.59316406 1.55931641 5.59316406 1.68359375 6.8359375 C1.89090114 9.04272805 1.89090114 9.04272805 3 11 C1.35 11.66 -0.3 12.32 -2 13 C-2.66 12.01 -3.32 11.02 -4 10 C-3.01 10 -2.02 10 -1 10 C-0.67 6.7 -0.34 3.4 0 0 Z " fill="#ED631A" transform="translate(157,85)"/>
<path d="M0 0 C4 2 4 2 5 4 C3.52830189 7.73584906 3.52830189 7.73584906 1 9 C0.67 6.03 0.34 3.06 0 0 Z " fill="#ED5C2C" transform="translate(166,81)"/>
<path d="M0 0 C0.66 0.33 1.32 0.66 2 1 C1.67 3.31 1.34 5.62 1 8 C0.01 7.67 -0.98 7.34 -2 7 C-1.125 1.125 -1.125 1.125 0 0 Z " fill="#EB6D22" transform="translate(139,110)"/>
<path d="M0 0 C0.99 0.33 1.98 0.66 3 1 C2.91621094 1.61488281 2.83242187 2.22976562 2.74609375 2.86328125 C2.64425781 3.67152344 2.54242188 4.47976562 2.4375 5.3125 C2.33308594 6.11300781 2.22867188 6.91351563 2.12109375 7.73828125 C1.85244822 10.16817116 1.85244822 10.16817116 3 13 C1.68 12.34 0.36 11.68 -1 11 C-0.67 7.37 -0.34 3.74 0 0 Z " fill="#BB5530" transform="translate(135,85)"/>
<path d="M0 0 C0.99 0 1.98 0 3 0 C3 1.98 3 3.96 3 6 C3.66 6.33 4.32 6.66 5 7 C3.68 7 2.36 7 1 7 C0.67 4.69 0.34 2.38 0 0 Z " fill="#EA973A" transform="translate(145,119)"/>
<path d="M0 0 C1.32 0.33 2.64 0.66 4 1 C4.33 3.31 4.66 5.62 5 8 C3.68 7.67 2.36 7.34 1 7 C0.67 4.69 0.34 2.38 0 0 Z " fill="#F45F2D" transform="translate(144,84)"/>
<path d="M0 0 C1.65 0 3.3 0 5 0 C5.33 1.32 5.66 2.64 6 4 C3.03 3.505 3.03 3.505 0 3 C0 2.01 0 1.02 0 0 Z " fill="#F19A28" transform="translate(148,122)"/>
<path d="M0 0 C0.12375 0.639375 0.2475 1.27875 0.375 1.9375 C0.58125 2.618125 0.7875 3.29875 1 4 C1.66 4.33 2.32 4.66 3 5 C3.625 7.5625 3.625 7.5625 4 10 C3.01 9.67 2.02 9.34 1 9 C-0.4783226 6.04335481 -0.06032783 3.25770263 0 0 Z " fill="#D79C2D" transform="translate(161,111)"/>
<path d="M0 0 C3.375 4.5 3.375 4.5 4 8 C3.34 8 2.68 8 2 8 C1.34 8.99 0.68 9.98 0 11 C0 7.37 0 3.74 0 0 Z " fill="#D77B33" transform="translate(171,91)"/>
<path d="M0 0 C1.32 0.33 2.64 0.66 4 1 C3.67 3.31 3.34 5.62 3 8 C0.37613513 4.93882432 0 4.26826873 0 0 Z " fill="#F37A2D" transform="translate(171,87)"/>
</svg>
