<?xml version="1.0" encoding="UTF-8"?>
<svg version="1.1" xmlns="http://www.w3.org/2000/svg" width="300" height="200">
<path d="M0 0 C0.99631538 -0.00538554 1.99263075 -0.01077108 3.0191375 -0.01631981 C6.33760339 -0.03055858 9.65566809 -0.02350561 12.97415161 -0.01637268 C15.361545 -0.02207838 17.74893565 -0.02904342 20.13632202 -0.03717041 C25.93610582 -0.05323557 31.73576511 -0.0552068 37.53556643 -0.04995751 C42.25256452 -0.04590683 46.96953068 -0.04736999 51.68652725 -0.05270576 C52.35932003 -0.05345419 53.03211281 -0.05420261 53.72529326 -0.05497371 C55.09232441 -0.05650528 56.45935556 -0.05804363 57.82638671 -0.05958868 C70.63040402 -0.07329929 83.43436014 -0.0678863 96.23837604 -0.05640347 C107.93484642 -0.04647384 119.63115854 -0.05940957 131.32760452 -0.08333766 C143.35694101 -0.10776007 155.38620389 -0.11732875 167.41556466 -0.11068493 C174.16135582 -0.10719951 180.90702536 -0.10937975 187.6527977 -0.12693596 C193.99765292 -0.14242483 200.34220648 -0.13842753 206.68704987 -0.11963081 C209.01096922 -0.11595031 211.33491102 -0.1190376 213.65880966 -0.1295166 C216.84059309 -0.14276475 220.02138345 -0.13114436 223.203125 -0.11352539 C224.56994158 -0.1279329 224.56994158 -0.1279329 225.96437061 -0.14263147 C235.03484118 -0.03987232 243.76821145 2.72616387 250.87698364 8.48924255 C259.14169428 16.96318637 262.03151544 26.15361106 262.01907349 37.63670349 C262.02579071 38.53689209 262.03250793 39.43708069 262.03942871 40.36454773 C262.05834654 43.32544047 262.06232994 46.28610572 262.06448364 49.24705505 C262.07091648 51.31820263 262.0776452 53.3893493 262.08465576 55.460495 C262.09661344 59.79789841 262.1003382 64.13522227 262.09915161 68.47264099 C262.09894865 74.00820141 262.1262343 79.54324713 262.16069603 85.07868576 C262.183025 89.35631108 262.18698729 93.63381378 262.18593216 97.91149139 C262.18827972 99.95107545 262.19705519 101.99066332 262.21259689 104.03018951 C262.39594643 130.57880561 262.39594643 130.57880561 252.72854614 140.38768005 C243.68490177 148.00338058 235.16771427 150.85222315 223.45709229 150.77536011 C222.46077691 150.78074565 221.46446153 150.78613118 220.43795478 150.79167992 C217.11948889 150.80591869 213.8014242 150.79886572 210.48294067 150.79173279 C208.09554729 150.79743849 205.70815663 150.80440352 203.32077026 150.81253052 C197.52098646 150.82859568 191.72132718 150.8305669 185.92152585 150.82531761 C181.20452776 150.82126694 176.48756161 150.82273009 171.77056503 150.82806587 C171.09777225 150.82881429 170.42497947 150.82956272 169.73179903 150.83033382 C168.36476787 150.83186539 166.99773672 150.83340373 165.63070558 150.83494879 C152.82668827 150.8486594 140.02273215 150.84324641 127.21871625 150.83176357 C115.52224587 150.82183395 103.82593374 150.83476968 92.12948777 150.85869776 C80.10015128 150.88312018 68.0708884 150.89268886 56.04152763 150.88604504 C49.29573646 150.88255962 42.55006692 150.88473985 35.80429459 150.90229607 C29.45943937 150.91778494 23.11488581 150.91378764 16.77004242 150.89499092 C14.44612307 150.89131042 12.12218127 150.89439771 9.79828262 150.90487671 C6.6164992 150.91812485 3.43570884 150.90650447 0.25396729 150.8888855 C-1.11284929 150.90329301 -1.11284929 150.90329301 -2.50727832 150.91799158 C-11.5777489 150.81523242 -20.31111917 148.04919624 -27.41989136 142.28611755 C-35.68460199 133.81217374 -38.57442315 124.62174905 -38.5619812 113.13865662 C-38.56869843 112.23846802 -38.57541565 111.33827942 -38.58233643 110.41081238 C-38.60125426 107.44991964 -38.60523766 104.48925438 -38.60739136 101.52830505 C-38.61382419 99.45715748 -38.62055291 97.38601081 -38.62756348 95.31486511 C-38.63952115 90.9774617 -38.64324591 86.64013784 -38.64205933 82.30271912 C-38.64185637 76.7671587 -38.66914201 71.23211298 -38.70360374 65.69667435 C-38.72593271 61.41904903 -38.72989501 57.14154633 -38.72883987 52.86386871 C-38.73118744 50.82428466 -38.7399629 48.78469679 -38.75550461 46.74517059 C-38.93885415 20.19655449 -38.93885415 20.19655449 -29.27145386 10.38768005 C-20.22780949 2.77197953 -11.71062199 -0.07686304 0 0 Z " fill="#FDCA00" transform="translate(38.271453857421875,24.612319946289063)"/>
<path d="M0 0 C4.12444805 -0.17625846 8.24791183 -0.28150609 12.375 -0.375 C13.53128906 -0.42527344 14.68757813 -0.47554688 15.87890625 -0.52734375 C25.54892644 -0.6912424 31.63920245 1.84685948 38.625 8.5 C41.28476607 15.27031364 41.40545498 23.71359133 38.5625 30.5 C34.72608505 36.80847106 27.43256576 40.45276422 20.55078125 42.54296875 C15.40711919 43.46457436 10.2018148 43.21707728 5 43 C4.79503906 44.03640625 4.59007813 45.0728125 4.37890625 46.140625 C4.10682231 47.51042689 3.83468404 48.88021799 3.5625 50.25 C3.42779297 50.93191406 3.29308594 51.61382812 3.15429688 52.31640625 C2.50690457 55.56915786 1.80468468 58.78126126 1 62 C-3.62 62 -8.24 62 -13 62 C-12.57984506 55.2775209 -11.35280469 49.02317297 -9.65551758 42.52612305 C-8.26022089 37.15014534 -7.05946268 31.75179247 -5.9375 26.3125 C-4.11688321 17.50249095 -2.19011442 8.72687052 0 0 Z " fill="#080600" transform="translate(42,69)"/>
<path d="M0 0 C3.33303003 -0.1174875 6.66551837 -0.18767324 10 -0.25 C10.93457031 -0.28351563 11.86914062 -0.31703125 12.83203125 -0.3515625 C20.82117183 -0.46329873 25.83145383 1.42555624 32 6.4375 C35.54333926 11.14593726 34.74534198 17.46514563 34 23 C31.92091897 29.39206826 27.39848724 32.75633995 21.625 35.75 C15.42973027 37.96259633 8.48589927 37.2280199 2 37 C2.01933594 37.92296875 2.03867188 38.8459375 2.05859375 39.796875 C2 43 2 43 1.0625 46.25 C-0.04882188 50.17231252 -0.45009318 53.81450702 -0.75390625 57.86328125 C-1 60 -1 60 -2 62 C-5.3 62 -8.6 62 -12 62 C-11.39021538 55.02205225 -10.41346758 48.24534816 -9.0625 41.375 C-8.89298828 40.48554687 -8.72347656 39.59609375 -8.54882812 38.6796875 C-7.76539359 34.62846707 -6.92854128 30.61330372 -5.8984375 26.6171875 C-5.22359218 23.90020156 -4.74812787 21.51754272 -4.5625 18.75 C-3.96564034 12.53180751 -2.80898026 5.61796052 0 0 Z " fill="#0A0800" transform="translate(152,69)"/>
<path d="M0 0 C1.47583955 0.0001591 2.95168467 0.00585225 4.42749023 0.01586914 C5.20293686 0.01728409 5.97838348 0.01869904 6.77732849 0.02015686 C9.26361893 0.02577194 11.74982059 0.03832693 14.23608398 0.05102539 C15.91772331 0.05603845 17.59936405 0.06060169 19.28100586 0.06469727 C23.41189965 0.07574626 27.54272674 0.09302094 31.67358398 0.11352539 C31.53315521 1.75982867 31.38609069 3.40556718 31.23608398 5.05102539 C31.15487305 5.96754883 31.07366211 6.88407227 30.98999023 7.82836914 C30.67358398 10.11352539 30.67358398 10.11352539 29.67358398 11.11352539 C28.03885517 11.20052881 26.40044343 11.22053602 24.76342773 11.21118164 C23.77407227 11.20795898 22.7847168 11.20473633 21.76538086 11.20141602 C20.72446289 11.19303711 19.68354492 11.1846582 18.61108398 11.17602539 C17.56629883 11.17151367 16.52151367 11.16700195 15.44506836 11.16235352 C12.85451739 11.15052452 10.2640784 11.13404228 7.67358398 11.11352539 C7.45702148 12.90790039 7.45702148 12.90790039 7.23608398 14.73852539 C6.8151688 18.22610832 6.25287099 21.63780337 5.67358398 25.11352539 C11.94358398 25.44352539 18.21358398 25.77352539 24.67358398 26.11352539 C23.67358398 35.11352539 23.67358398 35.11352539 22.67358398 38.11352539 C15.74358398 38.11352539 8.81358398 38.11352539 1.67358398 38.11352539 C1.38483398 39.84602539 1.09608398 41.57852539 0.79858398 43.36352539 C-0.24308268 49.61352539 -1.28474935 55.86352539 -2.32641602 62.11352539 C-7.27641602 62.11352539 -12.22641602 62.11352539 -17.32641602 62.11352539 C-16.89329102 59.70040039 -16.46016602 57.28727539 -16.01391602 54.80102539 C-15.88460693 54.06585693 -15.75529785 53.33068848 -15.62207031 52.57324219 C-14.89292061 48.60479738 -13.97512032 44.74399341 -12.88110352 40.85961914 C-11.18695343 34.79343485 -9.95587435 28.67016419 -8.76391602 22.48852539 C-4.40690257 0.15040071 -4.40690257 0.15040071 0 0 Z " fill="#090700" transform="translate(97.326416015625,68.886474609375)"/>
<path d="M0 0 C2.88064339 1.60958345 4.67998078 3.36765895 6.3125 6.25 C6.61220653 8.83276511 6.73915878 11.11220258 6.6875 13.6875 C6.68097412 14.39398682 6.67444824 15.10047363 6.66772461 15.82836914 C6.52470751 21.53301998 5.50598111 26.80048654 4.046875 32.3203125 C3.05147164 36.29133656 2.65775643 40.17597411 2.3125 44.25 C-0.3275 44.25 -2.9675 44.25 -5.6875 44.25 C-6.0175 42.93 -6.3475 41.61 -6.6875 40.25 C-7.41453125 40.79140625 -7.41453125 40.79140625 -8.15625 41.34375 C-13.32576817 44.92264719 -16.41538472 45.95814205 -22.6875 45.25 C-26.71396852 44.47567913 -28.26249286 43.70856034 -31.0625 40.6875 C-33.52793117 35.47216484 -33.29746056 30.99482253 -32.0625 25.4375 C-29.00015038 20.56558014 -23.64687505 18.45727206 -18.34375 16.77734375 C-13.17297446 15.75079272 -7.93177767 16.0311507 -2.6875 16.25 C-2.955625 14.97125 -3.22375 13.6925 -3.5 12.375 C-3.65082031 11.65570313 -3.80164063 10.93640625 -3.95703125 10.1953125 C-4.61058838 7.87953451 -4.61058838 7.87953451 -7.6875 6.25 C-13.65344388 5.54076192 -19.05378992 6.29044867 -24.6875 8.25 C-24.8125 2.5 -24.8125 2.5 -23.6875 0.25 C-16.81346642 -3.2938345 -6.9796092 -3.29520583 0 0 Z " fill="#0C0A00" transform="translate(218.6875,85.75)"/>
<path d="M0 0 C3.3 0 6.6 0 10 0 C11.53639417 10.31345447 12.82108931 20.64063585 14 31 C16.70220769 29.64889615 16.75114479 28.41263308 17.765625 25.6015625 C19.9550386 19.90055695 22.75240433 14.685701 25.75 9.375 C26.25660156 8.46621094 26.76320313 7.55742188 27.28515625 6.62109375 C28.51811018 4.41108199 29.75829072 2.20510441 31 0 C34.3 0 37.6 0 41 0 C27.99298835 26.390432 27.99298835 26.390432 20.45703125 38.53515625 C18.69147712 41.52192476 17.14340588 44.59930027 15.5625 47.6875 C12.11448948 54.1563339 8.08964845 60.2593555 1 63 C-1.796875 63.1953125 -1.796875 63.1953125 -4.75 63.125 C-6.22726563 63.09792969 -6.22726563 63.09792969 -7.734375 63.0703125 C-8.48203125 63.04710937 -9.2296875 63.02390625 -10 63 C-10 60.36 -10 57.72 -10 55 C-9.34773437 54.93683594 -8.69546875 54.87367188 -8.0234375 54.80859375 C-3.58938564 54.1873033 0.31266022 53.44317385 3.75 50.4375 C6.92775093 46.0389182 6.05673421 41.46602758 5.30419922 36.4050293 C4.89169525 33.9323762 4.4456545 31.46688712 4 29 C3.46561961 25.8277514 2.94048434 22.65404502 2.41552734 19.48022461 C2.06004714 17.35585305 1.69602659 15.23288983 1.32275391 13.11157227 C1.15179199 12.13115967 0.98083008 11.15074707 0.8046875 10.140625 C0.64983887 9.26954102 0.49499023 8.39845703 0.33544922 7.50097656 C0 5 0 5 0 0 Z " fill="#0A0800" transform="translate(235,86)"/>
<path d="M0 0 C5.0495899 0.05439415 8.72144914 1.65894914 12.3125 5.25 C12.81120772 10.43656025 12.26354229 13.92180464 9.3125 18.25 C4.11299332 22.14963001 -1.48354038 21.548055 -7.6875 21.25 C-6.00231616 0.40693669 -6.00231616 0.40693669 0 0 Z " fill="#F5C500" transform="translate(163.6875,76.75)"/>
<path d="M0 0 C4.96753897 -0.35342174 8.94448614 -0.41856584 13.625 1.4375 C16.18940338 4.20435628 16.43332384 4.843572 16.625 8.4375 C16.31370533 12.74610122 15.28804237 15.05806735 12 18 C6.83245145 21.56806924 2.03653699 21.3221077 -4 21 C-3.35401634 16.12689995 -2.49028264 11.36868161 -1.4375 6.5625 C-1.03337891 4.70818359 -1.03337891 4.70818359 -0.62109375 2.81640625 C-0.31365234 1.42228516 -0.31365234 1.42228516 0 0 Z " fill="#EDBE00" transform="translate(53,80)"/>
<path d="M0 0 C-1.33168223 9.54372261 -1.33168223 9.54372261 -4.62890625 12.421875 C-9.51998001 15.82935496 -13.08074545 16.90293713 -19 16 C-21.65656032 13.84154474 -21.92904589 12.41685537 -22.5 9.0625 C-21.81873722 4.8897655 -20.33037744 3.53398283 -17 1 C-11.60367734 -0.67029035 -5.61008945 -0.08984129 0 0 Z " fill="#F1C100" transform="translate(215,109)"/>
<path d="M0 0 C0.66 0.33 1.32 0.66 2 1 C-1.465 3.97 -1.465 3.97 -5 7 C-3.92643531 2.70574125 -3.4915227 2.25259529 0 0 Z " fill="#292000" transform="translate(192,106)"/>
</svg>
