<svg width="32" height="32" viewBox="0 0 32 32" fill="none" xmlns="http://www.w3.org/2000/svg">
<g clip-path="url(#clip0)">
<path d="M9.421 24.869H12.378L12.892 26.518H14.709L11.885 18.506H9.955L7.101 26.518H8.863L9.421 24.869ZM10.894 20.315H10.917L11.909 23.483H9.867L10.894 20.315ZM6.616 24.146C6.616 23.353 6.36 22.572 5.379 22.205C5.712 22.038 6.36 21.715 6.36 20.564C6.36 19.739 5.858 18.509 3.894 18.509H0V26.523H3.393C5.034 26.523 5.469 26.244 5.925 25.794C6.348 25.383 6.616 24.778 6.616 24.146ZM1.607 19.895H3.527C4.285 19.895 4.754 20.094 4.754 20.752C4.754 21.39 4.231 21.646 3.57 21.646H1.607V19.895ZM3.659 25.138H1.607V22.994H3.738C4.342 22.994 4.943 23.265 4.943 23.965C4.942 24.778 4.474 25.138 3.659 25.138ZM27.591 21.789L31.05 26.518H28.896L26.42 23.002L25.639 23.807V26.518H23.965V18.506H25.639V21.764L28.697 18.506H30.861L27.591 21.789ZM7.103 30.967C7.103 30.201 6.919 30.075 6.582 29.928C6.988 29.79 7.217 29.404 7.217 28.949C7.217 28.595 7.018 27.791 5.926 27.791H3.851V31.894H4.693V30.29H5.578C6.213 30.29 6.248 30.508 6.248 31.066C6.248 31.488 6.281 31.702 6.338 31.894H7.287V31.787C7.103 31.716 7.103 31.566 7.103 30.967ZM5.694 29.598H4.691V28.498H5.758C6.26 28.498 6.358 28.816 6.358 29.035C6.358 29.439 6.142 29.598 5.694 29.598ZM8.476 11.495C8.47 11.311 8.464 11.089 8.456 10.833C8.44 10.573 8.507 10.291 8.534 9.97301C8.567 9.65301 8.61 9.30601 8.731 8.95201C8.833 8.59401 8.922 8.20201 9.118 7.83701C9.204 7.64901 9.292 7.45601 9.384 7.26201C9.48 7.07101 9.613 6.89801 9.728 6.71101C9.955 6.32701 10.249 5.98901 10.55 5.65101C10.841 5.29801 11.2 5.02901 11.527 4.71801C11.886 4.46401 12.228 4.17001 12.595 3.96301C12.956 3.73501 13.312 3.53101 13.663 3.36301C14.009 3.17601 14.352 3.05001 14.665 2.91001C15.149 2.72201 15.579 2.57601 15.933 2.47201C15.785 2.10801 15.658 1.72901 15.564 1.32601C15.465 0.910014 15.381 0.485014 15.373 0.00201416C15.838 0.132014 16.227 0.321014 16.606 0.519014C16.983 0.719014 17.327 0.942014 17.649 1.18401C18.299 1.66301 18.852 2.21501 19.354 2.80901C19.734 3.25801 19.767 3.88501 19.485 4.36401L19.426 4.46201C18.965 5.23301 18.416 5.95001 17.752 6.59101C17.424 6.91301 17.061 7.21401 16.657 7.49101C16.455 7.62701 16.241 7.75901 16.024 7.88601C15.799 8.00901 15.562 8.12201 15.301 8.22201C15.283 7.94401 15.287 7.68001 15.307 7.42501C15.332 7.17401 15.364 6.92801 15.403 6.68501C15.489 6.20601 15.612 5.75101 15.77 5.31801C15.786 5.27101 15.805 5.22701 15.823 5.18101C15.669 5.20001 15.509 5.22101 15.335 5.24601C15.064 5.30401 14.753 5.34401 14.444 5.43401C14.126 5.50601 13.801 5.60701 13.472 5.72701C13.126 5.82901 12.816 6.00401 12.464 6.14501C12.155 6.33601 11.798 6.49301 11.505 6.72601C11.198 6.94801 10.888 7.17201 10.634 7.44901C10.505 7.58301 10.355 7.70601 10.238 7.84901C10.127 7.99601 10.015 8.14401 9.906 8.28701C9.664 8.56601 9.516 8.88901 9.352 9.18801C9.172 9.48201 9.063 9.78801 8.969 10.075C8.881 10.362 8.754 10.622 8.717 10.867C8.67 11.113 8.629 11.326 8.596 11.503C8.53 11.86 8.491 12.065 8.491 12.065C8.491 12.065 8.487 11.857 8.476 11.495ZM0.000999987 27.79H3.338V28.518H2.095V31.895H1.241V28.518H0.000999987V27.79ZM9.008 27.79L7.545 31.893H8.449L8.734 31.046H10.248L10.512 31.893H11.444L9.999 27.79H9.008ZM8.964 30.338L9.491 28.716H9.499L10.01 30.338H8.964ZM16.543 13.943C16.201 14.14 15.862 14.277 15.554 14.425C15.075 14.627 14.652 14.785 14.3 14.9C14.46 15.259 14.597 15.635 14.704 16.036C14.811 16.449 14.909 16.871 14.934 17.352C14.463 17.237 14.069 17.059 13.686 16.873C13.301 16.685 12.95 16.473 12.623 16.24C11.961 15.781 11.391 15.244 10.871 14.667C10.476 14.229 10.424 13.604 10.693 13.117L10.75 13.019C11.188 12.234 11.715 11.501 12.359 10.84C12.677 10.507 13.031 10.196 13.423 9.90801C13.624 9.76601 13.829 9.62801 14.044 9.49501C14.265 9.36501 14.499 9.24401 14.757 9.13801C14.782 9.41401 14.786 9.67901 14.773 9.93401C14.755 10.185 14.732 10.433 14.701 10.676C14.629 11.157 14.519 11.615 14.375 12.054C14.359 12.101 14.34 12.145 14.326 12.192C14.478 12.169 14.639 12.143 14.812 12.112C15.082 12.047 15.39 11.998 15.695 11.898C16.011 11.817 16.335 11.707 16.659 11.576C17.003 11.465 17.307 11.279 17.653 11.128C17.958 10.927 18.311 10.761 18.594 10.519C18.895 10.289 19.198 10.054 19.442 9.77101C19.57 9.63301 19.714 9.50501 19.83 9.36001C19.935 9.20801 20.043 9.05801 20.146 8.91101C20.38 8.62401 20.519 8.29801 20.673 7.99401C20.845 7.69401 20.944 7.38601 21.027 7.09601C21.107 6.80601 21.226 6.54301 21.256 6.29701C21.295 6.05001 21.328 5.83601 21.358 5.65901C21.419 5.30001 21.448 5.09501 21.448 5.09501C21.448 5.09501 21.464 5.30101 21.483 5.66301C21.493 5.84701 21.504 6.06901 21.522 6.32501C21.543 6.58401 21.489 6.86901 21.467 7.18801C21.446 7.50801 21.41 7.85701 21.301 8.21301C21.209 8.57201 21.131 8.96701 20.947 9.33701C20.867 9.52801 20.783 9.72301 20.699 9.92001C20.607 10.113 20.482 10.291 20.373 10.482C20.156 10.873 19.875 11.218 19.584 11.565C19.304 11.925 18.952 12.207 18.636 12.526C18.282 12.791 17.948 13.095 17.589 13.313C17.238 13.551 16.886 13.767 16.543 13.943ZM19.944 27.79H22.864V28.518H20.801V29.444H22.608V30.171H20.801V31.898H19.944V27.79ZM14.501 27.79H15.302V31.893H14.443L12.77 28.966H12.757V31.893H11.958V27.79H12.86L14.49 30.646H14.5L14.501 27.79ZM30.507 30.967C30.507 30.201 30.32 30.075 29.986 29.928C30.39 29.79 30.623 29.404 30.623 28.949C30.623 28.595 30.422 27.791 29.33 27.791H27.257V31.894H28.099V30.29H28.984C29.618 30.29 29.654 30.508 29.654 31.066C29.654 31.488 29.687 31.702 29.745 31.894H30.691V31.787C30.507 31.716 30.507 31.566 30.507 30.967ZM29.101 29.598H28.097V28.498H29.163C29.667 28.498 29.765 28.816 29.765 29.035C29.765 29.439 29.548 29.598 29.101 29.598ZM19.291 30.659C19.291 31.89 18.031 32.002 17.674 32.002C16.176 32.002 15.921 31.141 15.921 30.63H16.741C16.747 30.859 16.862 31.293 17.612 31.293C18.015 31.293 18.467 31.193 18.467 30.764C18.467 30.442 18.157 30.358 17.725 30.253L17.286 30.149C16.622 29.998 15.983 29.846 15.983 28.942C15.983 28.485 16.228 27.681 17.56 27.681C18.818 27.681 19.154 28.502 19.161 29.005H18.341C18.318 28.822 18.249 28.389 17.499 28.389C17.175 28.389 16.783 28.508 16.783 28.879C16.783 29.199 17.048 29.268 17.22 29.309L18.218 29.555C18.775 29.691 19.291 29.922 19.291 30.659ZM24.28 31.167H26.555V31.895H23.44V27.792H26.46V28.52H24.28V29.381H26.28V30.108H24.28V31.167ZM17.267 26.522H15.705V18.51H17.468L20.649 24.088H20.67V18.51H22.232V26.523H20.56L17.29 20.81H17.269L17.267 26.522Z" fill="black"/>
</g>
<defs>
<clipPath id="clip0">
<rect width="31.05" height="31.893" fill="white"/>
</clipPath>
</defs>
</svg>
