<?xml version="1.0" encoding="UTF-8"?>
<svg xmlns="http://www.w3.org/2000/svg" xmlns:xlink="http://www.w3.org/1999/xlink" width="50px" height="37px" viewBox="0 0 50 37" version="1.1">
<g id="surface1">
<path style=" stroke:none;fill-rule:nonzero;fill:rgb(32.156864%,62.352943%,98.039216%);fill-opacity:1;" d="M 40.234375 0.949219 C 41.453125 2.117188 41.726562 4.023438 42.15625 5.59375 C 42.226562 5.859375 42.296875 6.117188 42.367188 6.378906 C 42.632812 7.328125 42.632812 7.328125 42.757812 7.800781 C 42.78125 7.894531 42.808594 7.992188 42.835938 8.085938 C 42.890625 8.316406 42.890625 8.316406 42.890625 8.539062 C 43.058594 8.539062 43.058594 8.539062 43.226562 8.53125 C 43.648438 8.523438 44.066406 8.519531 44.484375 8.515625 C 44.664062 8.515625 44.847656 8.507812 45.027344 8.507812 C 46.339844 8.476562 47.570312 8.492188 48.597656 9.433594 C 49.398438 10.203125 49.871094 11.179688 49.914062 12.292969 C 49.914062 12.453125 49.914062 12.609375 49.914062 12.773438 C 49.914062 12.90625 49.914062 12.90625 49.914062 13.039062 C 49.914062 13.335938 49.914062 13.628906 49.914062 13.921875 C 49.914062 14.132812 49.914062 14.347656 49.914062 14.558594 C 49.917969 15.132812 49.917969 15.710938 49.921875 16.28125 C 49.921875 16.640625 49.921875 17 49.921875 17.359375 C 49.921875 18.484375 49.921875 19.609375 49.921875 20.734375 C 49.921875 22.03125 49.925781 23.328125 49.929688 24.628906 C 49.929688 25.632812 49.933594 26.632812 49.933594 27.640625 C 49.933594 28.238281 49.933594 28.835938 49.9375 29.4375 C 49.9375 30 49.9375 30.5625 49.9375 31.125 C 49.9375 31.335938 49.9375 31.539062 49.9375 31.746094 C 49.945312 33.21875 49.894531 34.496094 48.898438 35.671875 C 48.023438 36.488281 47.132812 36.914062 45.929688 36.910156 C 45.804688 36.910156 45.679688 36.910156 45.546875 36.914062 C 45.414062 36.910156 45.273438 36.910156 45.132812 36.910156 C 44.984375 36.910156 44.835938 36.910156 44.6875 36.910156 C 44.277344 36.910156 43.867188 36.910156 43.460938 36.90625 C 43.023438 36.90625 42.578125 36.90625 42.140625 36.90625 C 41.375 36.90625 40.617188 36.90625 39.851562 36.90625 C 38.75 36.90625 37.640625 36.90625 36.539062 36.902344 C 34.742188 36.902344 32.949219 36.898438 31.15625 36.898438 C 31.046875 36.898438 30.9375 36.898438 30.828125 36.898438 C 29.960938 36.898438 29.085938 36.898438 28.21875 36.898438 C 27.457031 36.898438 26.695312 36.898438 25.9375 36.894531 C 25.828125 36.894531 25.722656 36.894531 25.613281 36.894531 C 23.828125 36.890625 22.039062 36.890625 20.25 36.890625 C 19.152344 36.890625 18.050781 36.890625 16.949219 36.890625 C 16.195312 36.886719 15.4375 36.886719 14.683594 36.886719 C 14.25 36.886719 13.8125 36.886719 13.375 36.882812 C 12.976562 36.882812 12.578125 36.882812 12.179688 36.882812 C 11.96875 36.882812 11.757812 36.882812 11.546875 36.882812 C 10.789062 36.882812 10.042969 36.921875 9.289062 37 C 8.234375 37.035156 7.3125 36.453125 6.554688 35.765625 C 5.660156 34.792969 5.398438 33.375 5.0625 32.128906 C 5.007812 31.933594 4.953125 31.734375 4.898438 31.539062 C 4.753906 31.007812 4.609375 30.476562 4.464844 29.945312 C 4.3125 29.386719 4.160156 28.828125 4.007812 28.273438 C 3.75 27.34375 3.496094 26.414062 3.242188 25.484375 C 2.855469 24.070312 2.46875 22.660156 2.078125 21.25 C 1.953125 20.800781 1.832031 20.351562 1.710938 19.902344 C 1.679688 19.796875 1.648438 19.6875 1.617188 19.574219 C 1.328125 18.53125 1.042969 17.484375 0.757812 16.441406 C 0.707031 16.257812 0.65625 16.070312 0.601562 15.886719 C 0.535156 15.632812 0.464844 15.382812 0.398438 15.128906 C 0.359375 14.988281 0.320312 14.84375 0.28125 14.703125 C -0.046875 13.503906 -0.03125 12.414062 0.539062 11.289062 C 1.644531 9.46875 3.824219 9.171875 5.726562 8.648438 C 5.921875 8.59375 6.113281 8.539062 6.304688 8.484375 C 6.828125 8.34375 7.351562 8.195312 7.871094 8.054688 C 8.425781 7.898438 8.984375 7.742188 9.539062 7.585938 C 10.828125 7.230469 12.117188 6.875 13.40625 6.515625 C 13.96875 6.359375 14.527344 6.203125 15.089844 6.046875 C 15.199219 6.015625 15.304688 5.988281 15.421875 5.957031 C 15.746094 5.867188 16.074219 5.773438 16.398438 5.683594 C 16.507812 5.65625 16.617188 5.625 16.726562 5.59375 C 17.382812 5.414062 17.382812 5.414062 18.03125 5.230469 C 18.574219 5.082031 19.117188 4.929688 19.65625 4.78125 C 22.929688 3.875 26.199219 2.960938 29.46875 2.046875 C 29.570312 2.015625 29.667969 1.988281 29.773438 1.960938 C 30.351562 1.796875 30.925781 1.636719 31.5 1.476562 C 31.769531 1.398438 32.039062 1.324219 32.304688 1.25 C 33.078125 1.03125 33.851562 0.8125 34.625 0.59375 C 34.816406 0.539062 34.816406 0.539062 35.011719 0.484375 C 35.242188 0.414062 35.472656 0.351562 35.703125 0.28125 C 37.347656 -0.1875 38.851562 -0.125 40.234375 0.949219 Z M 40.234375 0.949219 "/>
<path style=" stroke:none;fill-rule:nonzero;fill:rgb(38.039216%,40.000001%,50.980395%);fill-opacity:1;" d="M 40.234375 0.949219 C 41.453125 2.117188 41.726562 4.023438 42.15625 5.59375 C 42.226562 5.859375 42.296875 6.117188 42.367188 6.378906 C 42.632812 7.328125 42.632812 7.328125 42.757812 7.800781 C 42.78125 7.894531 42.808594 7.992188 42.835938 8.085938 C 42.890625 8.316406 42.890625 8.316406 42.890625 8.539062 C 43.058594 8.539062 43.058594 8.539062 43.226562 8.53125 C 43.648438 8.523438 44.066406 8.519531 44.484375 8.515625 C 44.664062 8.515625 44.847656 8.507812 45.027344 8.507812 C 46.339844 8.476562 47.570312 8.492188 48.597656 9.433594 C 49.367188 10.171875 49.867188 11.132812 49.910156 12.210938 C 49.910156 12.328125 49.910156 12.445312 49.910156 12.570312 C 49.910156 12.703125 49.910156 12.835938 49.910156 12.976562 C 49.90625 13.117188 49.90625 13.261719 49.90625 13.410156 C 49.90625 13.558594 49.90625 13.710938 49.90625 13.859375 C 49.90625 14.25 49.90625 14.640625 49.90625 15.03125 C 49.90625 15.433594 49.902344 15.835938 49.902344 16.234375 C 49.902344 17.019531 49.898438 17.804688 49.898438 18.585938 C 42.75 18.59375 35.605469 18.59375 28.460938 18.5625 C 28.378906 18.5625 28.300781 18.5625 28.21875 18.5625 C 26.242188 18.554688 24.261719 18.546875 22.28125 18.539062 C 21.140625 18.53125 19.992188 18.53125 18.851562 18.523438 C 18.765625 18.523438 18.6875 18.523438 18.601562 18.523438 C 18.1875 18.523438 17.773438 18.519531 17.359375 18.515625 C 14.007812 18.503906 10.652344 18.492188 7.300781 18.476562 C 7.304688 20.453125 7.3125 22.425781 7.320312 24.398438 C 7.328125 25.320312 7.328125 26.234375 7.328125 27.152344 C 7.332031 27.953125 7.335938 28.75 7.339844 29.550781 C 7.34375 29.976562 7.34375 30.398438 7.34375 30.820312 C 7.34375 31.21875 7.34375 31.617188 7.351562 32.015625 C 7.351562 32.234375 7.351562 32.445312 7.351562 32.664062 C 7.363281 33.867188 7.671875 34.898438 8.523438 35.78125 C 9.101562 36.257812 9.707031 36.554688 10.414062 36.785156 C 10.414062 36.820312 10.414062 36.859375 10.414062 36.898438 C 9.074219 37.070312 8.058594 36.953125 6.96875 36.117188 C 5.742188 35.140625 5.453125 33.574219 5.0625 32.128906 C 5.007812 31.933594 4.953125 31.734375 4.898438 31.539062 C 4.753906 31.007812 4.609375 30.476562 4.464844 29.945312 C 4.3125 29.386719 4.160156 28.828125 4.007812 28.273438 C 3.75 27.34375 3.496094 26.414062 3.242188 25.484375 C 2.855469 24.070312 2.46875 22.660156 2.078125 21.25 C 1.953125 20.800781 1.832031 20.351562 1.710938 19.902344 C 1.679688 19.796875 1.648438 19.6875 1.617188 19.574219 C 1.328125 18.53125 1.042969 17.484375 0.757812 16.441406 C 0.707031 16.257812 0.65625 16.070312 0.601562 15.886719 C 0.535156 15.632812 0.464844 15.382812 0.398438 15.128906 C 0.359375 14.988281 0.320312 14.84375 0.28125 14.703125 C -0.046875 13.503906 -0.03125 12.414062 0.539062 11.289062 C 1.644531 9.46875 3.824219 9.171875 5.726562 8.648438 C 5.921875 8.59375 6.113281 8.539062 6.304688 8.484375 C 6.828125 8.34375 7.351562 8.195312 7.871094 8.054688 C 8.425781 7.898438 8.984375 7.742188 9.539062 7.585938 C 10.828125 7.230469 12.117188 6.875 13.40625 6.515625 C 13.96875 6.359375 14.527344 6.203125 15.089844 6.046875 C 15.199219 6.015625 15.304688 5.988281 15.421875 5.957031 C 15.746094 5.867188 16.074219 5.773438 16.398438 5.683594 C 16.507812 5.65625 16.617188 5.625 16.726562 5.59375 C 17.382812 5.414062 17.382812 5.414062 18.03125 5.230469 C 18.574219 5.082031 19.117188 4.929688 19.65625 4.78125 C 22.929688 3.875 26.199219 2.960938 29.46875 2.046875 C 29.570312 2.015625 29.667969 1.988281 29.773438 1.960938 C 30.351562 1.796875 30.925781 1.636719 31.5 1.476562 C 31.769531 1.398438 32.039062 1.324219 32.304688 1.25 C 33.078125 1.03125 33.851562 0.8125 34.625 0.59375 C 34.816406 0.539062 34.816406 0.539062 35.011719 0.484375 C 35.242188 0.414062 35.472656 0.351562 35.703125 0.28125 C 37.347656 -0.1875 38.851562 -0.125 40.234375 0.949219 Z M 40.234375 0.949219 "/>
<path style=" stroke:none;fill-rule:nonzero;fill:rgb(95.294118%,73.725492%,37.254903%);fill-opacity:1;" d="M 40.234375 0.949219 C 41.453125 2.117188 41.726562 4.023438 42.15625 5.59375 C 42.226562 5.859375 42.296875 6.117188 42.367188 6.378906 C 42.632812 7.328125 42.632812 7.328125 42.757812 7.800781 C 42.78125 7.894531 42.808594 7.992188 42.835938 8.085938 C 42.890625 8.316406 42.890625 8.316406 42.890625 8.539062 C 42.820312 8.539062 42.753906 8.539062 42.683594 8.539062 C 38.648438 8.546875 34.617188 8.550781 30.585938 8.5625 C 30.101562 8.5625 29.617188 8.5625 29.132812 8.5625 C 29.03125 8.5625 28.9375 8.5625 28.835938 8.5625 C 27.277344 8.570312 25.71875 8.570312 24.15625 8.570312 C 22.554688 8.570312 20.953125 8.578125 19.347656 8.578125 C 18.359375 8.582031 17.371094 8.585938 16.382812 8.585938 C 15.703125 8.585938 15.027344 8.585938 14.351562 8.585938 C 13.960938 8.589844 13.566406 8.59375 13.175781 8.589844 C 12.75 8.589844 12.328125 8.59375 11.902344 8.59375 C 11.78125 8.59375 11.65625 8.59375 11.53125 8.59375 C 10.273438 8.605469 9.203125 8.980469 8.304688 9.882812 C 7.648438 10.6875 7.378906 11.425781 7.382812 12.46875 C 7.382812 12.609375 7.382812 12.609375 7.382812 12.746094 C 7.378906 13.046875 7.378906 13.351562 7.378906 13.652344 C 7.378906 13.867188 7.378906 14.085938 7.375 14.304688 C 7.375 14.890625 7.375 15.484375 7.375 16.070312 C 7.375 16.441406 7.375 16.808594 7.375 17.179688 C 7.371094 18.460938 7.371094 19.75 7.371094 21.035156 C 7.371094 22.234375 7.367188 23.429688 7.367188 24.628906 C 7.359375 25.65625 7.359375 26.6875 7.359375 27.71875 C 7.359375 28.328125 7.359375 28.945312 7.359375 29.558594 C 7.355469 30.136719 7.355469 30.714844 7.359375 31.292969 C 7.359375 31.507812 7.359375 31.71875 7.355469 31.929688 C 7.347656 33.410156 7.441406 34.660156 8.523438 35.78125 C 9.101562 36.257812 9.707031 36.554688 10.414062 36.785156 C 10.414062 36.820312 10.414062 36.859375 10.414062 36.898438 C 9.074219 37.070312 8.058594 36.953125 6.96875 36.117188 C 5.742188 35.140625 5.453125 33.574219 5.0625 32.128906 C 5.007812 31.933594 4.953125 31.734375 4.898438 31.539062 C 4.753906 31.007812 4.609375 30.476562 4.464844 29.945312 C 4.3125 29.386719 4.160156 28.828125 4.007812 28.273438 C 3.75 27.34375 3.496094 26.414062 3.242188 25.484375 C 2.855469 24.070312 2.46875 22.660156 2.078125 21.25 C 1.953125 20.800781 1.832031 20.351562 1.710938 19.902344 C 1.679688 19.796875 1.648438 19.6875 1.617188 19.574219 C 1.328125 18.53125 1.042969 17.484375 0.757812 16.441406 C 0.707031 16.257812 0.65625 16.070312 0.601562 15.886719 C 0.535156 15.632812 0.464844 15.382812 0.398438 15.128906 C 0.359375 14.988281 0.320312 14.84375 0.28125 14.703125 C -0.046875 13.503906 -0.03125 12.414062 0.539062 11.289062 C 1.644531 9.46875 3.824219 9.171875 5.726562 8.648438 C 5.921875 8.59375 6.113281 8.539062 6.304688 8.484375 C 6.828125 8.34375 7.351562 8.195312 7.871094 8.054688 C 8.425781 7.898438 8.984375 7.742188 9.539062 7.585938 C 10.828125 7.230469 12.117188 6.875 13.40625 6.515625 C 13.96875 6.359375 14.527344 6.203125 15.089844 6.046875 C 15.199219 6.015625 15.304688 5.988281 15.421875 5.957031 C 15.746094 5.867188 16.074219 5.773438 16.398438 5.683594 C 16.507812 5.65625 16.617188 5.625 16.726562 5.59375 C 17.382812 5.414062 17.382812 5.414062 18.03125 5.230469 C 18.574219 5.082031 19.117188 4.929688 19.65625 4.78125 C 22.929688 3.875 26.199219 2.960938 29.46875 2.046875 C 29.570312 2.015625 29.667969 1.988281 29.773438 1.960938 C 30.351562 1.796875 30.925781 1.636719 31.5 1.476562 C 31.769531 1.398438 32.039062 1.324219 32.304688 1.25 C 33.078125 1.03125 33.851562 0.8125 34.625 0.59375 C 34.816406 0.539062 34.816406 0.539062 35.011719 0.484375 C 35.242188 0.414062 35.472656 0.351562 35.703125 0.28125 C 37.347656 -0.1875 38.851562 -0.125 40.234375 0.949219 Z M 40.234375 0.949219 "/>
<path style=" stroke:none;fill-rule:nonzero;fill:rgb(38.82353%,68.235296%,97.647059%);fill-opacity:1;" d="M 7.300781 18.476562 C 16.804688 18.476562 26.3125 18.476562 36.105469 18.476562 C 35.871094 19.265625 35.644531 19.917969 35.265625 20.625 C 35.21875 20.71875 35.167969 20.808594 35.117188 20.902344 C 33.808594 23.304688 31.9375 25.25 29.65625 26.738281 C 29.554688 26.804688 29.453125 26.875 29.34375 26.945312 C 26.992188 28.414062 24.203125 29.097656 21.453125 29.101562 C 21.335938 29.101562 21.21875 29.101562 21.101562 29.101562 C 20.851562 29.101562 20.601562 29.101562 20.351562 29.105469 C 19.957031 29.105469 19.5625 29.109375 19.167969 29.109375 C 18.046875 29.117188 16.921875 29.125 15.796875 29.125 C 15.109375 29.128906 14.421875 29.132812 13.734375 29.140625 C 13.46875 29.140625 13.210938 29.140625 12.949219 29.140625 C 12.582031 29.140625 12.21875 29.144531 11.851562 29.148438 C 11.6875 29.148438 11.6875 29.148438 11.527344 29.148438 C 10.390625 29.160156 9.398438 29.453125 8.523438 30.199219 C 7.976562 30.773438 7.644531 31.34375 7.414062 32.097656 C 7.375 32.097656 7.335938 32.097656 7.300781 32.097656 C 7.300781 27.601562 7.300781 23.109375 7.300781 18.476562 Z M 7.300781 18.476562 "/>
<path style=" stroke:none;fill-rule:nonzero;fill:rgb(39.215687%,68.627453%,97.254902%);fill-opacity:1;" d="M 12.039062 8.484375 C 12.191406 8.484375 12.34375 8.484375 12.492188 8.484375 C 12.898438 8.480469 13.304688 8.480469 13.714844 8.484375 C 14.15625 8.484375 14.597656 8.484375 15.039062 8.480469 C 15.90625 8.476562 16.765625 8.476562 17.632812 8.480469 C 18.335938 8.480469 19.035156 8.480469 19.738281 8.480469 C 19.835938 8.480469 19.9375 8.480469 20.039062 8.480469 C 20.242188 8.480469 20.445312 8.480469 20.652344 8.480469 C 22.554688 8.476562 24.460938 8.480469 26.367188 8.484375 C 28 8.484375 29.632812 8.484375 31.265625 8.484375 C 33.164062 8.480469 35.0625 8.476562 36.960938 8.480469 C 37.164062 8.480469 37.367188 8.480469 37.570312 8.480469 C 37.671875 8.480469 37.773438 8.480469 37.875 8.480469 C 38.574219 8.480469 39.273438 8.480469 39.976562 8.480469 C 40.832031 8.476562 41.6875 8.476562 42.539062 8.480469 C 42.976562 8.484375 43.414062 8.484375 43.847656 8.480469 C 44.25 8.480469 44.648438 8.480469 45.046875 8.484375 C 45.257812 8.484375 45.46875 8.484375 45.679688 8.480469 C 46.960938 8.492188 47.941406 8.800781 48.867188 9.695312 C 49.882812 10.898438 49.898438 11.992188 49.898438 13.5625 C 35.839844 13.5625 21.78125 13.5625 7.300781 13.5625 C 7.300781 11.21875 7.300781 11.21875 7.746094 10.550781 C 7.796875 10.472656 7.84375 10.394531 7.890625 10.316406 C 8.894531 8.84375 10.339844 8.46875 12.039062 8.484375 Z M 12.039062 8.484375 "/>
<path style=" stroke:none;fill-rule:nonzero;fill:rgb(30.19608%,33.333334%,44.705883%);fill-opacity:1;" d="M 36.996094 13.5625 C 41.253906 13.5625 45.507812 13.5625 49.898438 13.5625 C 49.898438 15.222656 49.898438 16.882812 49.898438 18.585938 C 45.34375 18.585938 40.796875 18.585938 36.105469 18.585938 C 36.253906 18 36.398438 17.410156 36.550781 16.804688 C 36.617188 16.476562 36.679688 16.152344 36.738281 15.824219 C 36.765625 15.679688 36.789062 15.535156 36.816406 15.386719 C 36.902344 14.78125 36.945312 14.171875 36.996094 13.5625 Z M 36.996094 13.5625 "/>
<path style=" stroke:none;fill-rule:nonzero;fill:rgb(96.862745%,80.000001%,42.352942%);fill-opacity:1;" d="M 5.523438 8.875 C 5.492188 8.941406 5.460938 9.007812 5.429688 9.078125 C 5.386719 9.164062 5.347656 9.25 5.304688 9.34375 C 5.265625 9.429688 5.226562 9.515625 5.1875 9.605469 C 4.96875 10.15625 4.949219 10.695312 4.945312 11.28125 C 4.945312 11.367188 4.945312 11.449219 4.945312 11.535156 C 4.945312 11.816406 4.945312 12.09375 4.945312 12.375 C 4.941406 12.578125 4.9375 12.78125 4.9375 12.980469 C 4.9375 13.527344 4.933594 14.074219 4.929688 14.621094 C 4.929688 15.191406 4.925781 15.765625 4.921875 16.335938 C 4.917969 17.414062 4.914062 18.496094 4.90625 19.578125 C 4.902344 20.808594 4.898438 22.039062 4.890625 23.273438 C 4.875 25.804688 4.867188 28.335938 4.851562 30.867188 C 4.605469 30.492188 4.503906 30.132812 4.390625 29.707031 C 4.367188 29.625 4.34375 29.539062 4.320312 29.453125 C 4.242188 29.167969 4.164062 28.886719 4.085938 28.601562 C 4.03125 28.40625 3.976562 28.203125 3.921875 28.003906 C 3.777344 27.46875 3.632812 26.929688 3.484375 26.394531 C 3.335938 25.839844 3.183594 25.289062 3.03125 24.734375 C 2.820312 23.953125 2.605469 23.179688 2.394531 22.398438 C 2.0625 21.183594 1.726562 19.96875 1.394531 18.75 C 1.375 18.671875 1.351562 18.597656 1.328125 18.515625 C 1.226562 18.152344 1.125 17.785156 1.027344 17.417969 C 0.847656 16.765625 0.667969 16.117188 0.488281 15.464844 C 0.460938 15.355469 0.429688 15.25 0.398438 15.132812 C 0.371094 15.039062 0.34375 14.9375 0.316406 14.835938 C 0.292969 14.75 0.269531 14.667969 0.246094 14.578125 C -0.0625 13.429688 -0.0078125 12.359375 0.539062 11.289062 C 1.257812 10.109375 2.234375 9.648438 3.523438 9.273438 C 3.742188 9.210938 3.96875 9.140625 4.1875 9.070312 C 5.265625 8.75 5.265625 8.75 5.523438 8.875 Z M 5.523438 8.875 "/>
<path style=" stroke:none;fill-rule:nonzero;fill:rgb(32.156864%,62.352943%,98.039216%);fill-opacity:1;" d="M 42.296875 8.503906 C 42.421875 8.5 42.546875 8.5 42.671875 8.5 C 42.9375 8.5 43.199219 8.5 43.460938 8.5 C 43.859375 8.5 44.257812 8.492188 44.65625 8.492188 C 44.914062 8.492188 45.171875 8.492188 45.425781 8.488281 C 45.542969 8.488281 45.664062 8.484375 45.78125 8.484375 C 47.015625 8.492188 47.976562 8.835938 48.867188 9.695312 C 49.882812 10.898438 49.898438 11.992188 49.898438 13.5625 C 45.640625 13.5625 41.382812 13.5625 36.996094 13.5625 C 36.996094 12.277344 37.296875 11.21875 38.109375 10.214844 C 38.164062 10.144531 38.21875 10.078125 38.277344 10.003906 C 39.328125 8.824219 40.796875 8.507812 42.296875 8.503906 Z M 42.296875 8.503906 "/>
<path style=" stroke:none;fill-rule:nonzero;fill:rgb(98.039216%,29.019609%,20%);fill-opacity:1;" d="M 38.21875 21.828125 C 38.367188 21.976562 38.367188 21.976562 38.539062 22.195312 C 39.078125 22.839844 39.707031 23.386719 40.332031 23.945312 C 40.695312 23.789062 40.921875 23.597656 41.195312 23.304688 C 41.273438 23.226562 41.347656 23.148438 41.429688 23.0625 C 41.585938 22.894531 41.75 22.722656 41.90625 22.550781 C 41.984375 22.472656 42.0625 22.390625 42.140625 22.308594 C 42.210938 22.234375 42.28125 22.164062 42.351562 22.085938 C 42.554688 21.9375 42.554688 21.9375 42.769531 21.964844 C 43.03125 22.0625 43.164062 22.171875 43.359375 22.367188 C 43.425781 22.4375 43.492188 22.503906 43.5625 22.570312 C 43.632812 22.644531 43.703125 22.71875 43.773438 22.792969 C 43.847656 22.867188 43.921875 22.941406 44 23.015625 C 44.234375 23.253906 44.464844 23.492188 44.695312 23.730469 C 44.855469 23.890625 45.015625 24.054688 45.171875 24.210938 C 45.5625 24.609375 45.953125 25 46.335938 25.398438 C 45.90625 25.921875 45.453125 26.414062 44.972656 26.890625 C 44.878906 26.984375 44.878906 26.984375 44.78125 27.082031 C 44.582031 27.28125 44.382812 27.480469 44.183594 27.679688 C 44.046875 27.816406 43.910156 27.953125 43.773438 28.085938 C 43.445312 28.421875 43.109375 28.75 42.78125 29.082031 C 42.40625 28.921875 42.164062 28.710938 41.875 28.421875 C 41.792969 28.335938 41.710938 28.25 41.625 28.164062 C 41.539062 28.078125 41.453125 27.988281 41.359375 27.898438 C 41.273438 27.804688 41.1875 27.71875 41.09375 27.625 C 40.875 27.40625 40.660156 27.183594 40.445312 26.960938 C 39.898438 27.414062 39.390625 27.890625 38.894531 28.398438 C 38.828125 28.464844 38.761719 28.53125 38.695312 28.601562 C 38.539062 28.757812 38.375 28.921875 38.21875 29.082031 C 37.898438 28.9375 37.664062 28.78125 37.417969 28.523438 C 37.351562 28.460938 37.28125 28.390625 37.214844 28.320312 C 37.144531 28.25 37.074219 28.179688 37 28.105469 C 36.929688 28.03125 36.851562 27.957031 36.78125 27.882812 C 36.546875 27.644531 36.3125 27.40625 36.078125 27.171875 C 35.921875 27.007812 35.761719 26.851562 35.601562 26.6875 C 35.210938 26.296875 34.828125 25.90625 34.4375 25.507812 C 34.871094 24.992188 35.320312 24.496094 35.796875 24.015625 C 35.859375 23.953125 35.921875 23.890625 35.984375 23.828125 C 36.117188 23.695312 36.25 23.5625 36.378906 23.429688 C 36.578125 23.226562 36.78125 23.023438 36.984375 22.820312 C 37.109375 22.691406 37.238281 22.5625 37.367188 22.433594 C 37.425781 22.375 37.484375 22.3125 37.546875 22.25 C 37.96875 21.828125 37.96875 21.828125 38.21875 21.828125 Z M 38.21875 21.828125 "/>
<path style=" stroke:none;fill-rule:nonzero;fill:rgb(50.588238%,78.039217%,98.039216%);fill-opacity:1;" d="M 12.867188 20.984375 C 13.03125 20.984375 13.03125 20.984375 13.199219 20.984375 C 13.558594 20.984375 13.921875 20.984375 14.28125 20.984375 C 14.53125 20.984375 14.78125 20.984375 15.03125 20.984375 C 15.5625 20.984375 16.085938 20.984375 16.609375 20.984375 C 17.285156 20.988281 17.960938 20.984375 18.632812 20.984375 C 19.152344 20.984375 19.671875 20.984375 20.1875 20.984375 C 20.4375 20.984375 20.6875 20.984375 20.933594 20.984375 C 21.28125 20.984375 21.628906 20.984375 21.976562 20.984375 C 22.078125 20.984375 22.179688 20.984375 22.285156 20.984375 C 22.945312 20.992188 23.328125 21.109375 23.875 21.492188 C 24.203125 21.851562 24.308594 22.148438 24.34375 22.640625 C 24.304688 23.25 24.121094 23.578125 23.710938 24.015625 C 23.238281 24.398438 22.75 24.359375 22.171875 24.355469 C 22.054688 24.359375 21.945312 24.359375 21.828125 24.359375 C 21.453125 24.363281 21.074219 24.359375 20.699219 24.359375 C 20.4375 24.359375 20.175781 24.359375 19.914062 24.363281 C 19.367188 24.363281 18.820312 24.363281 18.273438 24.359375 C 17.570312 24.359375 16.867188 24.359375 16.167969 24.367188 C 15.625 24.367188 15.085938 24.367188 14.546875 24.367188 C 14.289062 24.367188 14.03125 24.367188 13.773438 24.367188 C 13.410156 24.371094 13.046875 24.367188 12.6875 24.367188 C 12.578125 24.367188 12.476562 24.367188 12.367188 24.371094 C 11.710938 24.359375 11.367188 24.242188 10.894531 23.78125 C 10.589844 23.425781 10.535156 23.136719 10.484375 22.679688 C 10.53125 22.199219 10.640625 21.84375 10.96875 21.492188 C 11.613281 21.039062 12.09375 20.980469 12.867188 20.984375 Z M 12.867188 20.984375 "/>
<path style=" stroke:none;fill-rule:nonzero;fill:rgb(96.862745%,79.607844%,42.352942%);fill-opacity:1;" d="M 32.101562 1.507812 C 31.992188 1.546875 31.886719 1.585938 31.773438 1.625 C 30.671875 2.109375 29.867188 2.96875 29.402344 4.078125 C 29.089844 5.003906 29.0625 5.746094 28.988281 6.753906 C 23.703125 6.753906 18.417969 6.753906 12.972656 6.753906 C 13.285156 6.546875 13.484375 6.46875 13.835938 6.371094 C 13.945312 6.339844 14.058594 6.3125 14.171875 6.28125 C 14.292969 6.246094 14.414062 6.214844 14.539062 6.179688 C 14.667969 6.144531 14.796875 6.109375 14.929688 6.074219 C 15.210938 5.996094 15.492188 5.921875 15.777344 5.84375 C 16.46875 5.65625 17.164062 5.464844 17.859375 5.273438 C 18.023438 5.230469 18.191406 5.1875 18.355469 5.140625 C 20.429688 4.570312 22.496094 3.992188 24.566406 3.414062 C 24.941406 3.3125 25.320312 3.203125 25.695312 3.101562 C 25.96875 3.023438 26.238281 2.945312 26.507812 2.871094 C 26.859375 2.773438 27.203125 2.679688 27.550781 2.578125 C 28.320312 2.367188 29.085938 2.148438 29.851562 1.929688 C 29.984375 1.890625 30.113281 1.851562 30.246094 1.8125 C 30.484375 1.742188 30.722656 1.675781 30.960938 1.605469 C 31.117188 1.5625 31.117188 1.5625 31.273438 1.515625 C 31.359375 1.488281 31.449219 1.460938 31.539062 1.4375 C 31.769531 1.398438 31.769531 1.398438 32.101562 1.507812 Z M 32.101562 1.507812 "/>
<path style=" stroke:none;fill-rule:nonzero;fill:rgb(87.843138%,66.274512%,34.509805%);fill-opacity:1;" d="M 29.101562 6.753906 C 33.46875 6.753906 37.835938 6.753906 42.335938 6.753906 C 42.667969 7.421875 42.667969 7.421875 42.890625 8.539062 C 38.449219 8.539062 34.007812 8.539062 29.433594 8.539062 C 29.101562 7.203125 29.101562 7.203125 29.101562 6.753906 Z M 29.101562 6.753906 "/>
<path style=" stroke:none;fill-rule:nonzero;fill:rgb(95.294118%,73.333335%,37.254903%);fill-opacity:1;" d="M 38.21875 21.828125 C 38.359375 21.976562 38.359375 21.976562 38.53125 22.1875 C 39.109375 22.875 39.78125 23.460938 40.445312 24.058594 C 40.054688 24.523438 39.65625 24.972656 39.21875 25.398438 C 39.382812 25.78125 39.601562 26.03125 39.902344 26.320312 C 39.984375 26.398438 40.0625 26.476562 40.148438 26.558594 C 40.207031 26.617188 40.269531 26.679688 40.332031 26.738281 C 40.171875 27.113281 39.964844 27.359375 39.671875 27.640625 C 39.589844 27.726562 39.507812 27.8125 39.417969 27.898438 C 39.328125 27.984375 39.242188 28.070312 39.148438 28.164062 C 39.0625 28.25 38.972656 28.335938 38.882812 28.429688 C 38.660156 28.648438 38.4375 28.867188 38.21875 29.082031 C 37.898438 28.9375 37.664062 28.78125 37.417969 28.523438 C 37.351562 28.460938 37.28125 28.390625 37.214844 28.320312 C 37.144531 28.25 37.074219 28.179688 37 28.105469 C 36.929688 28.03125 36.851562 27.957031 36.78125 27.882812 C 36.546875 27.644531 36.3125 27.40625 36.078125 27.171875 C 35.921875 27.007812 35.761719 26.851562 35.601562 26.6875 C 35.210938 26.296875 34.828125 25.90625 34.4375 25.507812 C 34.871094 24.992188 35.320312 24.496094 35.796875 24.015625 C 35.859375 23.953125 35.921875 23.890625 35.984375 23.828125 C 36.117188 23.695312 36.25 23.5625 36.378906 23.429688 C 36.578125 23.226562 36.78125 23.023438 36.984375 22.820312 C 37.109375 22.691406 37.238281 22.5625 37.367188 22.433594 C 37.425781 22.375 37.484375 22.3125 37.546875 22.25 C 37.96875 21.828125 37.96875 21.828125 38.21875 21.828125 Z M 38.21875 21.828125 "/>
<path style=" stroke:none;fill-rule:nonzero;fill:rgb(50.588238%,78.039217%,98.039216%);fill-opacity:1;" d="M 13.890625 31.242188 C 14.070312 31.242188 14.070312 31.242188 14.257812 31.242188 C 14.515625 31.242188 14.769531 31.246094 15.027344 31.25 C 15.417969 31.25 15.8125 31.25 16.203125 31.25 C 16.453125 31.25 16.699219 31.25 16.949219 31.25 C 17.066406 31.25 17.183594 31.25 17.304688 31.25 C 18.117188 31.265625 18.117188 31.265625 18.546875 31.53125 C 18.796875 31.8125 18.859375 31.921875 18.894531 32.296875 C 18.863281 32.703125 18.78125 32.894531 18.53125 33.210938 C 18.203125 33.421875 17.945312 33.464844 17.554688 33.46875 C 17.453125 33.46875 17.347656 33.472656 17.238281 33.472656 C 17.070312 33.472656 17.070312 33.472656 16.898438 33.476562 C 16.722656 33.476562 16.722656 33.476562 16.546875 33.476562 C 16.296875 33.476562 16.050781 33.476562 15.804688 33.476562 C 15.429688 33.476562 15.054688 33.484375 14.675781 33.484375 C 14.4375 33.484375 14.195312 33.488281 13.957031 33.488281 C 13.84375 33.492188 13.734375 33.492188 13.617188 33.492188 C 13.121094 33.492188 12.835938 33.484375 12.40625 33.226562 C 12.078125 32.859375 12.0625 32.601562 12.023438 32.117188 C 12.25 31.167969 13.109375 31.234375 13.890625 31.242188 Z M 13.890625 31.242188 "/>
<path style=" stroke:none;fill-rule:nonzero;fill:rgb(50.588238%,78.039217%,98.431373%);fill-opacity:1;" d="M 22.703125 31.242188 C 22.824219 31.242188 22.949219 31.242188 23.078125 31.242188 C 23.335938 31.238281 23.601562 31.242188 23.859375 31.242188 C 24.257812 31.246094 24.660156 31.242188 25.0625 31.238281 C 25.3125 31.242188 25.570312 31.242188 25.820312 31.242188 C 25.941406 31.242188 26.0625 31.238281 26.183594 31.238281 C 27.015625 31.25 27.015625 31.25 27.453125 31.585938 C 27.703125 31.945312 27.734375 32.125 27.710938 32.550781 C 27.617188 32.914062 27.382812 33.097656 27.097656 33.324219 C 26.835938 33.457031 26.671875 33.453125 26.378906 33.453125 C 26.273438 33.453125 26.171875 33.457031 26.066406 33.457031 C 25.898438 33.460938 25.898438 33.460938 25.730469 33.460938 C 25.558594 33.460938 25.558594 33.460938 25.382812 33.460938 C 25.140625 33.460938 24.898438 33.460938 24.65625 33.460938 C 24.285156 33.464844 23.914062 33.46875 23.546875 33.46875 C 23.308594 33.472656 23.074219 33.472656 22.835938 33.472656 C 22.671875 33.476562 22.671875 33.476562 22.5 33.476562 C 21.527344 33.476562 21.527344 33.476562 21.09375 33.101562 C 20.859375 32.75 20.832031 32.53125 20.804688 32.109375 C 21.054688 31.164062 21.90625 31.234375 22.703125 31.242188 Z M 22.703125 31.242188 "/>
<path style=" stroke:none;fill-rule:nonzero;fill:rgb(50.588238%,78.039217%,98.431373%);fill-opacity:1;" d="M 40.359375 31.242188 C 40.542969 31.242188 40.542969 31.242188 40.726562 31.242188 C 40.984375 31.242188 41.242188 31.246094 41.496094 31.25 C 41.890625 31.25 42.28125 31.25 42.671875 31.25 C 42.921875 31.25 43.171875 31.25 43.417969 31.25 C 43.535156 31.25 43.652344 31.25 43.773438 31.25 C 44.585938 31.265625 44.585938 31.265625 45.019531 31.53125 C 45.265625 31.804688 45.328125 31.929688 45.378906 32.292969 C 45.320312 32.796875 45.132812 32.960938 44.78125 33.324219 C 44.515625 33.457031 44.347656 33.453125 44.054688 33.457031 C 43.894531 33.460938 43.894531 33.460938 43.734375 33.460938 C 43.617188 33.460938 43.507812 33.460938 43.390625 33.460938 C 43.273438 33.464844 43.15625 33.464844 43.035156 33.464844 C 42.789062 33.46875 42.539062 33.46875 42.289062 33.46875 C 41.914062 33.46875 41.535156 33.476562 41.15625 33.480469 C 40.914062 33.484375 40.675781 33.484375 40.433594 33.484375 C 40.265625 33.484375 40.265625 33.484375 40.09375 33.492188 C 39.304688 33.488281 39.304688 33.488281 38.875 33.226562 C 38.546875 32.859375 38.53125 32.601562 38.492188 32.117188 C 38.722656 31.167969 39.578125 31.234375 40.359375 31.242188 Z M 40.359375 31.242188 "/>
<path style=" stroke:none;fill-rule:nonzero;fill:rgb(50.588238%,78.039217%,98.039216%);fill-opacity:1;" d="M 30.851562 31.292969 C 30.960938 31.289062 31.070312 31.289062 31.179688 31.289062 C 31.683594 31.28125 32.183594 31.28125 32.6875 31.273438 C 32.949219 31.273438 33.210938 31.273438 33.476562 31.265625 C 33.859375 31.261719 34.242188 31.257812 34.621094 31.257812 C 34.738281 31.253906 34.859375 31.25 34.976562 31.25 C 35.800781 31.25 35.800781 31.25 36.234375 31.585938 C 36.492188 31.945312 36.515625 32.121094 36.488281 32.550781 C 36.414062 32.890625 36.242188 33.085938 35.992188 33.324219 C 35.730469 33.457031 35.5625 33.453125 35.265625 33.457031 C 35.164062 33.460938 35.058594 33.460938 34.953125 33.460938 C 34.46875 33.46875 33.992188 33.472656 33.511719 33.476562 C 33.257812 33.476562 33.007812 33.480469 32.753906 33.484375 C 32.390625 33.492188 32.023438 33.492188 31.660156 33.492188 C 31.492188 33.5 31.492188 33.5 31.320312 33.5 C 30.804688 33.5 30.4375 33.5 30.03125 33.167969 C 29.742188 32.851562 29.664062 32.757812 29.621094 32.34375 C 29.664062 31.90625 29.796875 31.738281 30.101562 31.429688 C 30.371094 31.289062 30.546875 31.296875 30.851562 31.292969 Z M 30.851562 31.292969 "/>
<path style=" stroke:none;fill-rule:nonzero;fill:rgb(88.235295%,24.313726%,18.039216%);fill-opacity:1;" d="M 44.226562 23.390625 C 44.980469 24.007812 45.65625 24.703125 46.335938 25.398438 C 45.90625 25.921875 45.453125 26.414062 44.972656 26.890625 C 44.910156 26.953125 44.847656 27.015625 44.78125 27.082031 C 44.582031 27.28125 44.382812 27.480469 44.183594 27.679688 C 44.046875 27.816406 43.910156 27.953125 43.773438 28.085938 C 43.445312 28.421875 43.109375 28.75 42.78125 29.082031 C 42.429688 28.929688 42.195312 28.742188 41.925781 28.46875 C 41.851562 28.398438 41.777344 28.320312 41.703125 28.242188 C 41.625 28.164062 41.550781 28.085938 41.472656 28.007812 C 41.394531 27.929688 41.316406 27.851562 41.238281 27.769531 C 41.046875 27.574219 40.855469 27.378906 40.664062 27.183594 C 40.796875 26.8125 40.902344 26.53125 41.222656 26.289062 C 41.46875 26.226562 41.46875 26.226562 41.75 26.1875 C 42.429688 26.066406 42.886719 25.859375 43.367188 25.351562 C 43.648438 24.929688 43.765625 24.601562 43.828125 24.101562 C 43.894531 23.703125 43.941406 23.640625 44.226562 23.390625 Z M 44.226562 23.390625 "/>
<path style=" stroke:none;fill-rule:nonzero;fill:rgb(87.450981%,66.274512%,34.901962%);fill-opacity:1;" d="M 7.300781 29.863281 C 7.304688 30.03125 7.304688 30.03125 7.304688 30.203125 C 7.308594 30.625 7.316406 31.046875 7.324219 31.472656 C 7.328125 31.65625 7.328125 31.835938 7.328125 32.015625 C 7.34375 33.460938 7.476562 34.695312 8.523438 35.78125 C 9.101562 36.257812 9.707031 36.554688 10.414062 36.785156 C 10.414062 36.820312 10.414062 36.859375 10.414062 36.898438 C 9.074219 37.070312 8.058594 36.953125 6.96875 36.117188 C 6.292969 35.578125 5.867188 34.945312 5.632812 34.105469 C 5.476562 32.671875 5.710938 31.597656 6.542969 30.4375 C 7.03125 29.863281 7.03125 29.863281 7.300781 29.863281 Z M 7.300781 29.863281 "/>
<path style=" stroke:none;fill-rule:nonzero;fill:rgb(95.294118%,79.215688%,43.921569%);fill-opacity:1;" d="M 38.21875 21.828125 C 38.398438 22.007812 38.398438 22.007812 38.601562 22.242188 C 38.667969 22.320312 38.734375 22.398438 38.804688 22.480469 C 38.984375 22.703125 39.160156 22.929688 39.332031 23.164062 C 39.246094 23.15625 39.164062 23.152344 39.074219 23.144531 C 38.777344 23.140625 38.777344 23.140625 38.59375 23.300781 C 38.40625 23.546875 38.378906 23.726562 38.335938 24.039062 C 38.222656 24.6875 37.992188 25.085938 37.503906 25.539062 C 36.941406 25.921875 36.4375 26 35.773438 26.070312 C 35.71875 26.34375 35.71875 26.34375 35.664062 26.625 C 35.539062 26.527344 35.421875 26.429688 35.300781 26.328125 C 35.234375 26.273438 35.164062 26.214844 35.09375 26.15625 C 34.847656 25.921875 34.648438 25.664062 34.4375 25.398438 C 34.9375 24.890625 35.445312 24.382812 35.945312 23.871094 C 36.117188 23.699219 36.289062 23.523438 36.460938 23.351562 C 36.703125 23.101562 36.953125 22.855469 37.195312 22.609375 C 37.273438 22.53125 37.351562 22.453125 37.429688 22.371094 C 37.5 22.296875 37.570312 22.226562 37.644531 22.15625 C 37.707031 22.089844 37.769531 22.027344 37.835938 21.960938 C 37.996094 21.828125 37.996094 21.828125 38.21875 21.828125 Z M 38.21875 21.828125 "/>
<path style=" stroke:none;fill-rule:nonzero;fill:rgb(96.470588%,79.607844%,42.352942%);fill-opacity:1;" d="M 7.1875 21.378906 C 7.1875 22.375 7.1875 23.367188 7.1875 24.390625 C 6.476562 24.109375 6.476562 24.109375 6.1875 23.609375 C 6.058594 23.078125 6.03125 22.640625 6.203125 22.117188 C 6.453125 21.765625 6.730469 21.378906 7.1875 21.378906 Z M 7.1875 21.378906 "/>
</g>
</svg>
