<?xml version="1.0" encoding="UTF-8"?>
<svg id="logosandtypes_com" data-name="logosandtypes com" xmlns="http://www.w3.org/2000/svg" viewBox="0 0 150 150">
  <defs>
    <style>
      .cls-1 {
        fill: #007B7C;
      }

      .cls-2 {
        fill: none;
      }
    </style>
  </defs>
  <path class="cls-2" d="M0,0H150V150H0V0Z"/>
  <g>
    <path class="cls-1" d="M26.71,55.78c-2.62,2.25-4.86,4.86-7.11,7.48,10.85,10.85,18.71,27.69,21.33,47.15h10.48c-2.25-17.21-7.86-32.93-16.84-45.28-2.62-3.74-4.86-6.74-7.86-9.36Z"/>
    <path class="cls-1" d="M13.99,70.37c-1.87,2.99-3.74,6.36-5.24,9.73,6.36,7.86,10.85,18.34,13.1,29.94h10.48c-1.87-12.72-6.74-24.32-13.47-34.05-1.5-1.87-2.99-3.74-4.86-5.61Z"/>
    <path class="cls-1" d="M2.39,110.04H12.87c-1.5-7.11-4.12-13.85-7.86-19.83-1.87,6.36-2.62,13.1-2.62,19.83Z"/>
    <path class="cls-1" d="M116.9,51.29c-1.5-1.12-2.62-1.87-4.12-2.99-.75,.75-1.12,1.5-1.87,2.25-8.23,9.36-17.96,23.58-22.83,43.78-1.5-8.23-3.74-16.09-6.36-23.58,5.61-12.35,12.35-21.71,18.71-28.82-1.87-.75-3.37-1.12-5.24-1.87-5.24,6.36-10.85,14.22-16.09,23.95-3.37-8.23-7.86-15.72-12.72-22.83-.75-1.12-1.5-2.25-2.62-3.37-3.74,.75-7.48,1.5-11.23,2.62,8.61,10.1,15.72,22.83,20.58,37.42-1.87,5.24-3.37,10.48-4.49,16.47-3.37-15.72-9.73-29.94-17.96-41.91-2.25-2.99-4.49-5.99-6.74-8.61-3.37,1.5-6.36,3.37-9.36,5.24,13.85,13.85,23.58,35.18,26.2,59.88h10.85c.75-8.23,2.25-16.09,4.12-22.83,1.87,7.48,3.37,14.97,4.12,22.83h10.48c2.99-26.94,14.59-45.28,24.32-56.13,.37,.37,1.5-.37,2.25-1.5Z"/>
    <path class="cls-1" d="M130.37,64.39c-1.12-1.12-2.25-2.62-3.37-3.74-11.23,11.6-20.58,28.07-23.2,49.77h4.86c2.99-20.96,11.98-35.55,20.21-44.16,.37-.75,1.12-1.5,1.5-1.87Z"/>
    <path class="cls-1" d="M122.52,110.04h5.24c2.25-13.1,7.86-22.45,13.1-29.19-.75-1.5-1.5-3.37-2.25-4.86-7.48,8.61-13.47,19.83-16.09,34.05Z"/>
    <path class="cls-1" d="M146.09,98.44c-1.87,3.37-2.99,7.48-4.12,11.6h5.24c-.37-3.74-.75-7.86-1.12-11.6Z"/>
  </g>
</svg>